<?xml version="1.0" encoding="utf-8"?>
<!-- Generator: Adobe Illustrator 16.0.0, SVG Export Plug-In . SVG Version: 6.00 Build 0)  -->
<!DOCTYPE svg PUBLIC "-//W3C//DTD SVG 1.1//EN" "http://www.w3.org/Graphics/SVG/1.1/DTD/svg11.dtd">
<svg version="1.1" id="Capa_1" xmlns="http://www.w3.org/2000/svg" xmlns:xlink="http://www.w3.org/1999/xlink" x="0px" y="0px"
	 width="612px" height="612px" viewBox="0 0 612 612" enable-background="new 0 0 612 612" xml:space="preserve">
<g>
	<g>
		<path fill="#F38320" d="M486.492,0H125.508C56.303,0,0,56.303,0,125.508v360.984C0,555.697,56.303,612,125.508,612h360.984
			C555.697,612,612,555.697,612,486.492V125.508C612,56.303,555.697,0,486.492,0z M576.141,486.492
			c0,49.433-40.216,89.648-89.648,89.648H125.508c-49.432,0-89.648-40.216-89.648-89.648V125.508
			c0-49.432,40.216-89.648,89.648-89.648h360.984c49.433,0,89.648,40.216,89.648,89.648V486.492z"/>
	</g>
</g>
<g>
	<g>
		<path fill="#F38320" d="M365.343,147.658c-2.067-7.71-7.011-14.155-13.923-18.145c-14.268-8.238-32.58-3.333-40.82,10.938
			l-4.6,7.965l-4.6-7.967c-8.239-14.268-26.55-19.175-40.82-10.938h-0.001c-14.27,8.239-19.175,26.55-10.937,40.821l21.852,37.849
			l-80.628,139.654h-58.783c-16.478,0-29.883,13.405-29.883,29.883s13.405,29.883,29.883,29.883h226.942l-34.507-59.766h-64.641
			l102.48-177.501C366.348,163.422,367.409,155.368,365.343,147.658z"/>
	</g>
</g>
<g>
	<g>
		<path fill="#F38320" d="M479.918,347.836h-58.783l-66.826-115.747l-34.505,59.766l103.758,179.713
			c3.991,6.914,10.434,11.858,18.146,13.926c2.575,0.689,5.187,1.031,7.783,1.031c5.178,0,10.289-1.357,14.895-4.018
			c14.27-8.239,19.176-26.552,10.936-40.819l-19.681-34.086h24.278c16.478,0,29.883-13.405,29.883-29.883
			S496.396,347.836,479.918,347.836z"/>
	</g>
</g>
<g>
	<g>
		<path fill="#F38320" d="M142.558,431.508l-5.877,10.18c-8.238,14.27-3.331,32.581,10.938,40.819
			c4.694,2.71,9.824,3.998,14.891,3.997c10.335,0,20.4-5.359,25.93-14.936l23.129-40.061H142.558z"/>
	</g>
</g>
</svg>
