<?xml version="1.0" encoding="utf-8"?>
<!-- Generator: Adobe Illustrator 16.0.0, SVG Export Plug-In . SVG Version: 6.00 Build 0)  -->
<!DOCTYPE svg PUBLIC "-//W3C//DTD SVG 1.1//EN" "http://www.w3.org/Graphics/SVG/1.1/DTD/svg11.dtd">
<svg version="1.1" id="svg8" xmlns="http://www.w3.org/2000/svg" xmlns:xlink="http://www.w3.org/1999/xlink" x="0px" y="0px"
	 width="1920px" height="1080px" viewBox="0 0 1920 1080" enable-background="new 0 0 1920 1080" xml:space="preserve">
<g id="layer1" transform="translate(0,-11.249983)">
	<g id="g4639">
		
			<radialGradient id="rect4518_1_" cx="779.3589" cy="732.3975" r="253.9995" gradientTransform="matrix(5.0681 0 0 -5.0222 -2989.8403 4229.5083)" gradientUnits="userSpaceOnUse">
			<stop  offset="0" style="stop-color:#FFFFFF"/>
			<stop  offset="1" style="stop-color:#F2F2F2"/>
		</radialGradient>
		<path id="rect4518" fill="url(#rect4518_1_)" d="M0,11.25h1920v1080H0V11.25z"/>
	</g>
	<g id="g2414">
		<path id="path858" fill="#6C81FF" stroke="#6C81FF" stroke-width="0.665" stroke-linecap="round" stroke-linejoin="round" d="
			M560,368.393c0,11.045-8.954,20-20,20l0,0c-11.046,0-20-8.955-20-20l0,0c0-11.046,8.954-20,20-20S560,357.347,560,368.393z"/>
		<path id="circle860" fill="#6C81FF" stroke="#6C81FF" stroke-width="0.3291" stroke-linecap="round" stroke-linejoin="round" d="
			M558.218,561.988c0,5.467-4.432,9.898-9.898,9.898l0,0c-5.467,0-9.898-4.432-9.898-9.898l0,0c0-5.467,4.432-9.898,9.898-9.898l0,0
			C553.786,552.09,558.218,556.521,558.218,561.988L558.218,561.988z"/>
		
			<path id="circle860-3" fill="#6C81FF" stroke="#6C81FF" stroke-width="0.3291" stroke-linecap="round" stroke-linejoin="round" d="
			M654.376,483.138c0,5.467-4.432,9.898-9.898,9.898l0,0c-5.467,0-9.898-4.432-9.898-9.898l0,0c0-5.467,4.432-9.898,9.898-9.898l0,0
			C649.944,473.239,654.376,477.671,654.376,483.138L654.376,483.138z"/>
		<path id="path858-0" fill="#6C81FF" stroke="#6C81FF" stroke-width="0.665" stroke-linecap="round" stroke-linejoin="round" d="
			M422.041,703.352c0,11.046-8.954,20-20,20l0,0c-11.046,0-20-8.954-20-20s8.954-20,20-20
			C413.086,683.352,422.041,692.306,422.041,703.352z"/>
		<path id="path858-6" fill="#6C81FF" stroke="#6C81FF" stroke-width="0.665" stroke-linecap="round" stroke-linejoin="round" d="
			M854.386,885.179c0,11.046-8.954,20-20,20c-11.045,0-20-8.954-20-20s8.955-20,20-20
			C845.432,865.179,854.386,874.133,854.386,885.179L854.386,885.179z"/>
		<path id="path858-8" fill="#6C81FF" stroke="#6C81FF" stroke-width="0.665" stroke-linecap="round" stroke-linejoin="round" d="
			M1236.224,749.818c0,11.046-8.954,20-20,20s-20-8.954-20-20s8.954-20,20-20S1236.224,738.772,1236.224,749.818z"/>
		<path id="path858-5" fill="#6C81FF" stroke="#6C81FF" stroke-width="0.665" stroke-linecap="round" stroke-linejoin="round" d="
			M1357.442,271.006c0,11.046-8.954,20-20,20s-20-8.954-20-20c0-11.045,8.954-20,20-20S1357.442,259.96,1357.442,271.006z"/>
		<path id="path858-69" fill="#6C81FF" stroke="#6C81FF" stroke-width="0.665" stroke-linecap="round" stroke-linejoin="round" d="
			M902.873,159.889c0,11.046-8.954,20-20,20c-11.045,0-20-8.954-20-20l0,0c0-11.045,8.955-20,20-20l0,0
			C893.919,139.889,902.873,148.844,902.873,159.889z"/>
		<path id="path858-2" fill="#6C81FF" stroke="#6C81FF" stroke-width="0.665" stroke-linecap="round" stroke-linejoin="round" d="
			M1048.335,351.818c0,11.045-8.954,20-20,20c-11.045,0-20-8.955-20-20c0-11.046,8.955-20,20-20
			C1039.381,331.818,1048.335,340.772,1048.335,351.818z"/>
		<path id="path858-51" fill="#6C81FF" stroke="#6C81FF" stroke-width="0.665" stroke-linecap="round" stroke-linejoin="round" d="
			M1535.229,618.499c0,11.045-8.954,20-20,20c-11.045,0-20-8.955-20-20c0-11.046,8.955-20,20-20
			C1526.274,598.499,1535.229,607.453,1535.229,618.499z"/>
		
			<path id="circle860-6" fill="#6C81FF" stroke="#6C81FF" stroke-width="0.3291" stroke-linecap="round" stroke-linejoin="round" d="
			M226.071,786.184c0,5.467-4.432,9.898-9.898,9.898l0,0c-5.467,0-9.898-4.432-9.898-9.898l0,0c0-5.467,4.432-9.898,9.898-9.898l0,0
			C221.64,776.285,226.071,780.717,226.071,786.184L226.071,786.184z"/>
		
			<path id="circle860-0" fill="#6C81FF" stroke="#6C81FF" stroke-width="0.3291" stroke-linecap="round" stroke-linejoin="round" d="
			M270.518,563.95c0,5.467-4.432,9.898-9.898,9.898l0,0c-5.467,0-9.898-4.432-9.898-9.898l0,0c0-5.467,4.432-9.898,9.898-9.898l0,0
			C266.086,554.052,270.518,558.483,270.518,563.95L270.518,563.95z"/>
		
			<path id="circle860-4" fill="#6C81FF" stroke="#6C81FF" stroke-width="0.3291" stroke-linecap="round" stroke-linejoin="round" d="
			M339.208,929.626c0,5.467-4.432,9.898-9.898,9.898l0,0c-5.467,0-9.898-4.432-9.898-9.898l0,0c0-5.467,4.432-9.898,9.898-9.898l0,0
			C334.776,919.728,339.208,924.159,339.208,929.626L339.208,929.626z"/>
		
			<path id="circle860-31" fill="#6C81FF" stroke="#6C81FF" stroke-width="0.3291" stroke-linecap="round" stroke-linejoin="round" d="
			M153.34,988.215c0,5.467-4.432,9.898-9.898,9.898c0,0,0,0,0,0c-5.466,0-9.898-4.432-9.898-9.898l0,0
			c0-5.467,4.432-9.898,9.898-9.898C148.908,978.316,153.34,982.748,153.34,988.215z"/>
		<path id="path858-55" fill="#6C81FF" stroke="#6C81FF" stroke-width="0.665" stroke-linecap="round" stroke-linejoin="round" d="
			M329.106,210.397c0,11.046-8.954,20-20,20c-11.045,0-20-8.955-20-20c0-11.046,8.955-20,20-20
			C320.152,190.397,329.106,199.351,329.106,210.397L329.106,210.397z"/>
		
			<path id="circle860-33" fill="#6C81FF" stroke="#6C81FF" stroke-width="0.3291" stroke-linecap="round" stroke-linejoin="round" d="
			M220.01,363.94c0,5.466-4.432,9.898-9.898,9.898l0,0c-5.467,0-9.898-4.432-9.898-9.898l0,0c0-5.467,4.432-9.899,9.898-9.899l0,0
			C215.579,354.042,220.01,358.474,220.01,363.94L220.01,363.94z"/>
		
			<path id="circle860-65" fill="#6C81FF" stroke="#6C81FF" stroke-width="0.3291" stroke-linecap="round" stroke-linejoin="round" d="
			M535.178,111.402c0,5.467-4.432,9.898-9.898,9.898l0,0c-5.467,0-9.898-4.432-9.898-9.898l0,0c0-5.467,4.432-9.898,9.898-9.898l0,0
			C530.746,101.503,535.178,105.935,535.178,111.402L535.178,111.402z"/>
		
			<path id="circle860-49" fill="#6C81FF" stroke="#6C81FF" stroke-width="0.3291" stroke-linecap="round" stroke-linejoin="round" d="
			M690.741,240.702c0,5.467-4.432,9.898-9.898,9.898l0,0c-5.467,0-9.898-4.432-9.898-9.898l0,0c0-5.467,4.432-9.898,9.898-9.898l0,0
			C686.31,230.803,690.741,235.235,690.741,240.702L690.741,240.702z"/>
		
			<path id="circle860-38" fill="#6C81FF" stroke="#6C81FF" stroke-width="0.3291" stroke-linecap="round" stroke-linejoin="round" d="
			M636.193,689.209c0,5.467-4.432,9.898-9.898,9.898l0,0c-5.467,0-9.898-4.432-9.898-9.898l0,0c0-5.467,4.432-9.898,9.898-9.898l0,0
			C631.762,679.311,636.193,683.742,636.193,689.209L636.193,689.209z"/>
		
			<path id="circle860-5" fill="#6C81FF" stroke="#6C81FF" stroke-width="0.3291" stroke-linecap="round" stroke-linejoin="round" d="
			M605.889,968.012c0,5.467-4.432,9.898-9.898,9.898s-9.898-4.432-9.898-9.898s4.432-9.898,9.898-9.898
			S605.889,962.545,605.889,968.012z"/>
		
			<path id="circle860-8" fill="#6C81FF" stroke="#6C81FF" stroke-width="0.3291" stroke-linecap="round" stroke-linejoin="round" d="
			M1100.863,945.788c0,5.467-4.432,9.898-9.898,9.898s-9.898-4.432-9.898-9.898s4.432-9.898,9.898-9.898
			S1100.863,940.321,1100.863,945.788z"/>
		
			<path id="circle860-60" fill="#6C81FF" stroke="#6C81FF" stroke-width="0.3291" stroke-linecap="round" stroke-linejoin="round" d="
			M959.441,757.899c0,5.467-4.432,9.898-9.898,9.898l0,0c-5.467,0-9.898-4.432-9.898-9.898l0,0c0-5.467,4.432-9.898,9.898-9.898l0,0
			C955.01,748.001,959.441,752.433,959.441,757.899L959.441,757.899z"/>
		
			<path id="circle860-7" fill="#6C81FF" stroke="#6C81FF" stroke-width="0.3291" stroke-linecap="round" stroke-linejoin="round" d="
			M1444.315,923.564c0,5.467-4.432,9.898-9.898,9.898s-9.898-4.432-9.898-9.898l0,0c0-5.467,4.432-9.898,9.898-9.898l0,0
			C1439.884,913.666,1444.315,918.098,1444.315,923.564z"/>
		
			<path id="circle860-9" fill="#6C81FF" stroke="#6C81FF" stroke-width="0.3291" stroke-linecap="round" stroke-linejoin="round" d="
			M1302.894,527.585c0,5.467-4.432,9.898-9.898,9.898s-9.898-4.432-9.898-9.898s4.432-9.898,9.898-9.898
			S1302.894,522.118,1302.894,527.585z"/>
		
			<path id="circle860-57" fill="#6C81FF" stroke="#6C81FF" stroke-width="0.3291" stroke-linecap="round" stroke-linejoin="round" d="
			M1605.939,349.798c0,5.467-4.432,9.898-9.898,9.898s-9.898-4.432-9.898-9.898s4.432-9.898,9.898-9.898
			S1605.939,344.331,1605.939,349.798z"/>
		
			<path id="circle860-63" fill="#6C81FF" stroke="#6C81FF" stroke-width="0.3291" stroke-linecap="round" stroke-linejoin="round" d="
			M1508.965,129.585c0,5.467-4.432,9.898-9.898,9.898s-9.898-4.432-9.898-9.898s4.432-9.898,9.898-9.898
			S1508.965,124.118,1508.965,129.585z"/>
		
			<path id="circle860-32" fill="#6C81FF" stroke="#6C81FF" stroke-width="0.3291" stroke-linecap="round" stroke-linejoin="round" d="
			M1179.655,157.869c0,5.467-4.432,9.898-9.898,9.898s-9.898-4.432-9.898-9.898s4.432-9.898,9.898-9.898
			S1179.655,152.402,1179.655,157.869z"/>
		<path id="path1059" fill="#6C81FF" stroke="#6C81FF" stroke-width="0.7937" d="M960,551.25l-315.522-68.112"/>
		<path id="path1059-4" fill="#6C81FF" stroke="#6C81FF" stroke-width="0.7937" d="M960,551.25L626.295,689.209"/>
		<path id="path1059-4-8" fill="#6C81FF" stroke="#6C81FF" stroke-width="0.7937" d="M834.386,885.179l-208.091-195.97"/>
		<path id="path1059-4-8-5" fill="#6C81FF" stroke="#6C81FF" stroke-width="0.7937" d="M595.99,968.012l30.305-278.803"/>
		<path id="path1059-4-8-5-3" fill="#6C81FF" stroke="#6C81FF" stroke-width="0.7937" d="M595.99,968.012L329.31,929.626"/>
		<path id="path1059-4-8-5-3-0" fill="#6C81FF" stroke="#6C81FF" stroke-width="0.7937" d="M402.041,703.352L329.31,929.626"/>
		<path id="path1059-4-8-5-3-0-9" fill="#6C81FF" stroke="#6C81FF" stroke-width="0.7937" d="M216.173,786.184L329.31,929.626"/>
		<path id="path1059-4-8-5-3-0-9-6" fill="#6C81FF" stroke="#6C81FF" stroke-width="0.7937" d="M143.442,988.215l185.868-58.589"/>
		<path id="path1059-4-8-5-3-0-3" fill="#6C81FF" stroke="#6C81FF" stroke-width="0.7937" d="M402.041,703.352L260.619,563.95"/>
		<path id="path1059-4-8-5-3-0-3-4" fill="#6C81FF" stroke="#6C81FF" stroke-width="0.7937" d="M402.041,703.352l146.278-141.363"/>
		<path id="path1059-4-8-5-3-0-3-4-1" fill="#6C81FF" stroke="#6C81FF" stroke-width="0.7937" d="M540,368.393l8.319,193.595"/>
		<path id="path1059-4-8-5-3-0-3-4-8" fill="#6C81FF" stroke="#6C81FF" stroke-width="0.7937" d="M402.041,703.352L210.112,363.94"
			/>
		<path id="path1059-4-8-5-3-0-90" fill="#6C81FF" stroke="#6C81FF" stroke-width="0.7937" d="M402.041,703.352l193.949,264.66"/>
		<path id="path1059-4-8-5-3-0-90-4" fill="#6C81FF" stroke="#6C81FF" stroke-width="0.7937" d="M402.041,703.352l224.254-14.143"/>
		<path id="path1059-4-8-5-3-0-3-4-1-4" fill="#6C81FF" stroke="#6C81FF" stroke-width="0.7937" d="M309.106,210.397
			l239.213,351.591"/>
		<path id="path1059-4-8-5-3-0-3-4-1-4-9" fill="#6C81FF" stroke="#6C81FF" stroke-width="0.7937" d="M309.106,210.397
			l216.173-98.995"/>
		<path id="path1059-4-8-5-3-0-3-4-1-4-9-9" fill="#6C81FF" stroke="#6C81FF" stroke-width="0.7937" d="M680.843,240.702
			l-155.563-129.3"/>
		<path id="path1059-4-8-5-3-0-3-4-1-4-9-9-4" fill="#6C81FF" stroke="#6C81FF" stroke-width="0.7937" d="M680.843,240.702
			l202.03-80.813"/>
		<path id="path1059-4-8-5-3-0-3-4-1-4-9-9-4-4" fill="#6C81FF" stroke="#6C81FF" stroke-width="0.7937" d="M1028.335,351.818
			L882.873,159.889"/>
		<path id="path1059-4-8-5-3-0-3-4-1-4-9-9-4-4-8" fill="#6C81FF" stroke="#6C81FF" stroke-width="0.7937" d="M1028.335,351.818
			l309.107-80.813"/>
		<path id="path1059-4-8-5-3-0-3-4-1-4-9-9-4-4-8-1" fill="#6C81FF" stroke="#6C81FF" stroke-width="0.7937" d="M1169.757,157.869
			l167.686,113.137"/>
		<path id="path1059-4-8-5-3-0-3-4-1-4-9-9-4-4-8-1-6" fill="#6C81FF" stroke="#6C81FF" stroke-width="0.7937" d="M1499.066,129.585
			l-161.624,141.421"/>
		<path id="path1059-4-8-5-3-0-3-4-1-4-9-9-4-4-8-1-6-5" fill="#6C81FF" stroke="#6C81FF" stroke-width="0.7937" d="
			M1596.041,349.798l-258.599-78.792"/>
		<path id="path1059-4-8-5-3-0-3-4-1-4-9-9-4-4-8-1-6-5-0" fill="#6C81FF" stroke="#6C81FF" stroke-width="0.7937" d="
			M1292.995,527.585l44.447-256.579"/>
		<path id="path1059-4-8-5-3-0-3-4-1-4-9-9-4-4-8-1-6-5-0-1" fill="#6C81FF" stroke="#6C81FF" stroke-width="0.7937" d="
			M1292.995,527.585l222.233,90.914"/>
		<path id="path1059-4-8-5-3-0-3-4-1-4-9-9-4-4-8-1-6-5-0-1-5" fill="#6C81FF" stroke="#6C81FF" stroke-width="0.7937" d="
			M1216.224,749.818l299.005-131.319"/>
		<path id="path1059-4-8-5-3-0-3-4-1-4-9-9-4-4-8-1-6-5-0-1-5-8" fill="#6C81FF" stroke="#6C81FF" stroke-width="0.7937" d="
			M1434.417,923.564l80.812-305.065"/>
		<path id="path1059-4-8-5-3-0-3-4-1-4-9-9-4-4-8-1-6-5-0-1-5-6" fill="#6C81FF" stroke="#6C81FF" stroke-width="0.7937" d="
			M1216.224,749.818l-266.681,8.081"/>
		<path id="path1059-4-8-5-3-0-3-4-1-4-9-9-4-4-8-1-6-5-0-1-5-6-0" fill="#6C81FF" stroke="#6C81FF" stroke-width="0.7937" d="
			M1090.965,945.788L949.543,757.899"/>
		<path id="path1059-4-8-5-3-0-3-4-1-4-9-9-4-4-8-1-6-5-0-1-5-6-0-1" fill="#6C81FF" stroke="#6C81FF" stroke-width="0.7937" d="
			M834.386,885.179l115.157-127.279"/>
		
			<path id="circle860-33-0" fill="#6C81FF" stroke="#6C81FF" stroke-width="0.3291" stroke-linecap="round" stroke-linejoin="round" d="
			M133.137,153.829c0,5.466-4.432,9.898-9.898,9.898l0,0c-5.467,0-9.898-4.432-9.898-9.898l0,0c0-5.467,4.432-9.899,9.898-9.899l0,0
			C128.706,143.93,133.137,148.362,133.137,153.829L133.137,153.829z"/>
		
			<path id="circle860-33-7" fill="#6C81FF" stroke="#6C81FF" stroke-width="0.3291" stroke-linecap="round" stroke-linejoin="round" d="
			M268.498,60.895c0,5.467-4.432,9.898-9.898,9.898l0,0c-5.467,0-9.898-4.432-9.898-9.898l0,0c0-5.467,4.432-9.898,9.898-9.898l0,0
			C264.066,50.996,268.498,55.428,268.498,60.895L268.498,60.895z"/>
		
			<path id="circle860-33-1" fill="#6C81FF" stroke="#6C81FF" stroke-width="0.3291" stroke-linecap="round" stroke-linejoin="round" d="
			M133.137,529.605c0,5.467-4.432,9.898-9.898,9.898l0,0c-5.467,0-9.898-4.432-9.898-9.898l0,0c0-5.467,4.432-9.898,9.898-9.898l0,0
			C128.706,519.707,133.137,524.139,133.137,529.605L133.137,529.605z"/>
		
			<path id="circle860-33-70" fill="#6C81FF" stroke="#6C81FF" stroke-width="0.3291" stroke-linecap="round" stroke-linejoin="round" d="
			M70.508,378.082c0,5.467-4.432,9.899-9.898,9.899l0,0c-5.467,0-9.899-4.432-9.899-9.899l0,0c0-5.467,4.432-9.898,9.899-9.898l0,0
			C66.076,368.184,70.508,372.615,70.508,378.082L70.508,378.082z"/>
		
			<path id="circle860-33-3" fill="#6C81FF" stroke="#6C81FF" stroke-width="0.3291" stroke-linecap="round" stroke-linejoin="round" d="
			M189.706,656.885c0,5.467-4.432,9.898-9.898,9.898l0,0c-5.467,0-9.898-4.432-9.898-9.898l0,0c0-5.467,4.432-9.898,9.898-9.898l0,0
			C185.274,646.986,189.706,651.418,189.706,656.885L189.706,656.885z"/>
		
			<path id="circle860-33-9" fill="#6C81FF" stroke="#6C81FF" stroke-width="0.3291" stroke-linecap="round" stroke-linejoin="round" d="
			M1707.041,516.964c0,5.467-4.432,9.899-9.898,9.899s-9.898-4.432-9.898-9.898v-0.001c0-5.466,4.432-9.898,9.898-9.898l0,0
			C1702.609,507.065,1707.041,511.498,1707.041,516.964z"/>
		
			<path id="circle860-33-8" fill="#6C81FF" stroke="#6C81FF" stroke-width="0.3291" stroke-linecap="round" stroke-linejoin="round" d="
			M1727.041,725.536c0,5.466-4.432,9.898-9.898,9.898s-9.898-4.433-9.898-9.898c0-5.467,4.432-9.898,9.898-9.898
			S1727.041,720.069,1727.041,725.536z"/>
		
			<path id="circle860-33-6" fill="#6C81FF" stroke="#6C81FF" stroke-width="0.3291" stroke-linecap="round" stroke-linejoin="round" d="
			M1209.898,988.393c0,5.467-4.432,9.898-9.898,9.898s-9.898-4.432-9.898-9.898s4.432-9.898,9.898-9.898l0,0
			C1205.467,978.494,1209.898,982.926,1209.898,988.393L1209.898,988.393z"/>
		
			<path id="circle860-33-5" fill="#6C81FF" stroke="#6C81FF" stroke-width="0.3291" stroke-linecap="round" stroke-linejoin="round" d="
			M1355.612,1008.393c0,5.467-4.432,9.898-9.898,9.898c-5.466,0-9.898-4.432-9.898-9.898s4.433-9.898,9.898-9.898
			C1351.181,998.494,1355.612,1002.926,1355.612,1008.393z"/>
		<path id="path1059-4-8-5-3-0-3-4-1-4-1" fill="#6C81FF" stroke="#6C81FF" stroke-width="0.7937" d="M309.106,210.397
			L258.599,60.895"/>
		<path id="path1059-4-8-5-3-0-3-4-1-4-1-4" fill="#6C81FF" stroke="#6C81FF" stroke-width="0.7937" d="M309.106,210.397
			l-185.868-56.568"/>
		<path id="path1059-4-8-5-3-0-3-4-8-5" fill="#6C81FF" stroke="#6C81FF" stroke-width="0.7937" d="M123.239,529.605l86.873-165.665
			"/>
		<path id="path1059-4-8-5-3-0-3-4-8-5-1" fill="#6C81FF" stroke="#6C81FF" stroke-width="0.7937" d="M60.609,378.082
			l149.502-14.142"/>
		<path id="path1059-4-8-5-3-0-3-0" fill="#6C81FF" stroke="#6C81FF" stroke-width="0.7937" d="M402.041,703.352l-222.234-46.467"/>
		<path id="path1059-4-8-5-3-0-3-4-1-4-9-9-4-4-8-1-6-5-0-9" fill="#6C81FF" stroke="#6C81FF" stroke-width="0.7937" d="
			M1292.995,527.585l-264.66-175.767"/>
		<path id="path1059-4-8-5-3-0-3-4-1-4-9-9-4-4-8-1-6-5-0-9-0" fill="#6C81FF" stroke="#6C81FF" stroke-width="0.7937" d="
			M1292.995,527.585l-76.771,222.233"/>
		<path id="path1059-4-8-5-3-0-3-4-1-4-9-9-4-4-8-1-6-5-0-9-0-0" fill="#6C81FF" stroke="#6C81FF" stroke-width="0.7937" d="
			M1200,988.393l16.224-238.574"/>
		<path id="path1059-4-8-5-3-0-3-4-1-4-9-9-4-4-8-1-6-5-0-9-0-0-5" fill="#6C81FF" stroke="#6C81FF" stroke-width="0.7937" d="
			M1345.714,1008.393l-129.49-258.574"/>
		<path id="path1059-4-8-5-3-0-3-4-1-4-9-9-4-4-8-1-6-5-0-1-6" fill="#6C81FF" stroke="#6C81FF" stroke-width="0.7937" d="
			M1697.143,516.964l-181.914,101.535"/>
		<path id="path1059-4-8-5-3-0-3-4-1-4-9-9-4-4-8-1-6-5-0-1-6-0" fill="#6C81FF" stroke="#6C81FF" stroke-width="0.7937" d="
			M1717.143,725.536l-201.914-107.037"/>
		<path id="path1059-4-8-5-3-0-3-4-1-6" fill="#6C81FF" stroke="#6C81FF" stroke-width="0.7937" d="M540,368.393l104.478,114.745"/>
		<path id="path1059-4-8-5-3-0-3-4-1-6-4" fill="#6C81FF" stroke="#6C81FF" stroke-width="0.7937" d="M540,368.393l140.843-127.691"
			/>
		<path id="path1059-4-8-5-3-0-3-4-1-6-4-5" fill="#6C81FF" stroke="#6C81FF" stroke-width="0.7937" d="M540,368.393
			L309.106,210.397"/>
		<path id="path858-5-7" fill="#6C81FF" stroke="#6C81FF" stroke-width="0.665" stroke-linecap="round" stroke-linejoin="round" d="
			M1727.158,220.499c0,11.045-8.955,20-20,20c-11.046,0-20-8.955-20-20c0-11.046,8.954-20,20-20
			C1718.203,200.499,1727.158,209.453,1727.158,220.499z"/>
		
			<path id="path858-5-72" fill="#6C81FF" stroke="#6C81FF" stroke-width="0.665" stroke-linecap="round" stroke-linejoin="round" d="
			M1680.69,897.301c0,11.046-8.954,20-19.999,20c-11.046,0-20-8.954-20-20s8.954-20,20-20
			C1671.736,877.301,1680.69,886.255,1680.69,897.301z"/>
		<path id="path1059-4-8-5-3-0-3-4-1-6-7" fill="#6C81FF" stroke="#6C81FF" stroke-width="0.7937" d="M882.873,159.889
			L644.478,483.138"/>
		<path id="path1059-4-8-5-3-0-3-4-1-6-7-3" fill="#6C81FF" stroke="#6C81FF" stroke-width="0.7937" d="M680.843,240.702
			l-36.365,242.436"/>
		<path id="path1059-4-8-5-3-0-3-4-1-6-7-3-2" fill="#6C81FF" stroke="#6C81FF" stroke-width="0.7937" d="M1028.335,351.818
			L644.478,483.138"/>
		<path id="path1059-4-8-5-3-0-3-4-1-4-9-9-4-4-8-1-6-5-0-1-5-6-8" fill="#6C81FF" stroke="#6C81FF" stroke-width="0.7937" d="
			M960,551.25l-10.457,206.649"/>
		<path id="path1059-4-8-5-3-0-3-4-1-4-9-9-4-4-8-1-6-5-0-9-0-5" fill="#6C81FF" stroke="#6C81FF" stroke-width="0.7937" d="
			M1292.995,527.585L960,551.25"/>
		<path id="path1059-4-8-5-3-0-3-4-1-6-7-3-2-9" fill="#6C81FF" stroke="#6C81FF" stroke-width="0.7937" d="M1028.335,351.818
			L960,551.25"/>
		
			<path id="circle860-57-1" fill="#6C81FF" stroke="#6C81FF" stroke-width="0.3291" stroke-linecap="round" stroke-linejoin="round" d="
			M1727.041,71.25c0,5.467-4.432,9.898-9.898,9.898s-9.898-4.432-9.898-9.898s4.432-9.898,9.898-9.898
			S1727.041,65.783,1727.041,71.25z"/>
		
			<path id="circle860-57-3" fill="#6C81FF" stroke="#6C81FF" stroke-width="0.3291" stroke-linecap="round" stroke-linejoin="round" d="
			M1868.47,195.536c0,5.467-4.432,9.898-9.898,9.898s-9.898-4.432-9.898-9.898s4.432-9.898,9.898-9.898
			S1868.47,190.069,1868.47,195.536z"/>
		
			<path id="circle860-57-14" fill="#6C81FF" stroke="#6C81FF" stroke-width="0.3291" stroke-linecap="round" stroke-linejoin="round" d="
			M1834.185,838.393c0,5.467-4.432,9.898-9.898,9.898s-9.898-4.432-9.898-9.898s4.432-9.898,9.898-9.898
			S1834.185,832.926,1834.185,838.393z"/>
		
			<path id="circle860-57-2" fill="#6C81FF" stroke="#6C81FF" stroke-width="0.3291" stroke-linecap="round" stroke-linejoin="round" d="
			M1592.756,1048.393c0,5.467-4.432,9.898-9.898,9.898s-9.898-4.432-9.898-9.898s4.432-9.898,9.898-9.898l0,0
			C1588.324,1038.494,1592.756,1042.926,1592.756,1048.393L1592.756,1048.393z"/>
		
			<path id="circle860-57-9" fill="#6C81FF" stroke="#6C81FF" stroke-width="0.3291" stroke-linecap="round" stroke-linejoin="round" d="
			M1782.756,1031.25c0,5.467-4.432,9.898-9.898,9.898s-9.898-4.432-9.898-9.898s4.432-9.898,9.898-9.898
			S1782.756,1025.783,1782.756,1031.25z"/>
		
			<path id="circle860-57-0" fill="#6C81FF" stroke="#6C81FF" stroke-width="0.3291" stroke-linecap="round" stroke-linejoin="round" d="
			M1505.612,456.964c0,5.467-4.432,9.898-9.898,9.898c-5.466,0-9.898-4.432-9.898-9.898s4.433-9.898,9.898-9.898
			C1501.181,447.065,1505.612,451.497,1505.612,456.964z"/>
		
			<path id="circle860-57-91" fill="#6C81FF" stroke="#6C81FF" stroke-width="0.3291" stroke-linecap="round" stroke-linejoin="round" d="
			M1789.898,412.679c0,5.467-4.432,9.898-9.898,9.898s-9.898-4.432-9.898-9.898s4.432-9.898,9.898-9.898
			S1789.898,407.212,1789.898,412.679z"/>
		<path id="path1059-4-8-5-3-0-3-4-1-4-9-9-4-4-8-1-6-5-7" fill="#6C81FF" stroke="#6C81FF" stroke-width="0.7937" d="
			M1596.041,349.798l111.117-129.299"/>
		<path id="path1059-4-8-5-3-0-3-4-1-4-9-9-4-4-8-1-6-5-7-4" fill="#6C81FF" stroke="#6C81FF" stroke-width="0.7937" d="
			M1717.143,71.25l-9.984,149.249"/>
		<path id="path1059-4-8-5-3-0-3-4-1-4-9-9-4-4-8-1-6-5-7-4-2" fill="#6C81FF" stroke="#6C81FF" stroke-width="0.7937" d="
			M1858.571,195.536l-151.413,24.963"/>
		<path id="path1059-4-8-5-3-0-3-4-1-4-9-9-4-4-8-1-6-5-7-4-2-7" fill="#6C81FF" stroke="#6C81FF" stroke-width="0.7937" d="
			M1780,412.679l-72.842-192.18"/>
		<path id="path1059-4-8-5-3-0-3-4-1-4-9-9-4-4-8-1-6-5-7-5" fill="#6C81FF" stroke="#6C81FF" stroke-width="0.7937" d="
			M1596.041,349.798l-100.327,107.166"/>
		<path id="path1059-4-8-5-3-0-3-4-1-4-9-9-4-4-8-1-6-5-7-5-5" fill="#6C81FF" stroke="#6C81FF" stroke-width="0.7937" d="
			M1515.229,618.499l-19.515-161.535"/>
		<path id="path1059-4-8-5-3-0-3-4-1-4-9-9-4-4-8-1-6-5-7-5-5-7" fill="#6C81FF" stroke="#6C81FF" stroke-width="0.7937" d="
			M1292.995,527.585l202.719-70.621"/>
		<path id="path1059-4-8-5-3-0-3-4-1-4-9-9-4-4-8-1-6-5-7-5-5-7-1" fill="#6C81FF" stroke="#6C81FF" stroke-width="0.7937" d="
			M1337.442,271.006l158.271,185.958"/>
		<path id="path1059-4-8-5-3-0-3-4-1-4-9-9-4-4-8-1-6-5-0-1-5-8-3" fill="#6C81FF" stroke="#6C81FF" stroke-width="0.7937" d="
			M1434.417,923.564l226.273-26.264"/>
		<path id="path1059-4-8-5-3-0-3-4-1-4-9-9-4-4-8-1-6-5-0-1-5-8-3-7" fill="#6C81FF" stroke="#6C81FF" stroke-width="0.7937" d="
			M1434.417,923.564l-218.193-173.746"/>
		<path id="path1059-4-8-5-3-0-3-4-1-4-9-9-4-4-8-1-6-5-0-1-5-8-3-78" fill="#6C81FF" stroke="#6C81FF" stroke-width="0.7937" d="
			M1717.143,725.536l-56.451,171.765"/>
		<path id="path1059-4-8-5-3-0-3-4-1-4-9-9-4-4-8-1-6-5-0-1-5-8-3-78-5" fill="#6C81FF" stroke="#6C81FF" stroke-width="0.7937" d="
			M1582.857,1048.393l77.834-151.092"/>
		
			<path id="path1059-4-8-5-3-0-3-4-1-4-9-9-4-4-8-1-6-5-0-1-5-8-3-78-5-6" fill="#6C81FF" stroke="#6C81FF" stroke-width="0.7937" d="
			M1772.857,1031.25l-112.166-133.949"/>
		
			<path id="path1059-4-8-5-3-0-3-4-1-4-9-9-4-4-8-1-6-5-0-1-5-8-3-78-5-6-5" fill="#6C81FF" stroke="#6C81FF" stroke-width="0.7937" d="
			M1824.286,838.393l-163.596,58.908"/>
		
			<path id="circle860-5-7" fill="#6C81FF" stroke="#6C81FF" stroke-width="0.3291" stroke-linecap="round" stroke-linejoin="round" d="
			M766.503,1015.488c0,5.467-4.432,9.898-9.898,9.898s-9.898-4.432-9.898-9.898s4.432-9.898,9.898-9.898
			S766.503,1010.021,766.503,1015.488z"/>
		
			<path id="circle860-5-4" fill="#6C81FF" stroke="#6C81FF" stroke-width="0.3291" stroke-linecap="round" stroke-linejoin="round" d="
			M977.625,1028.621c0,5.467-4.432,9.898-9.898,9.898s-9.898-4.432-9.898-9.898s4.432-9.898,9.898-9.898
			S977.625,1023.154,977.625,1028.621z"/>
		
			<path id="circle860-5-1" fill="#6C81FF" stroke="#6C81FF" stroke-width="0.3291" stroke-linecap="round" stroke-linejoin="round" d="
			M755.613,54.107c0,5.467-4.432,9.899-9.899,9.899l0,0c-5.466,0-9.898-4.432-9.898-9.899l0,0c0-5.467,4.432-9.898,9.898-9.898l0,0
			C751.181,44.208,755.613,48.64,755.613,54.107L755.613,54.107z"/>
		
			<path id="circle860-5-2" fill="#6C81FF" stroke="#6C81FF" stroke-width="0.3291" stroke-linecap="round" stroke-linejoin="round" d="
			M1035.16,61.148c0,5.467-4.432,9.898-9.898,9.898s-9.898-4.432-9.898-9.898s4.432-9.898,9.898-9.898
			S1035.16,55.682,1035.16,61.148z"/>
		<path id="path1059-4-8-5-3-0-3-4-1-4-9-9-4-46" fill="#6C81FF" stroke="#6C81FF" stroke-width="0.7937" d="M745.714,54.107
			l137.159,105.782"/>
		<path id="path1059-4-8-5-3-0-3-4-1-4-9-9-4-46-1" fill="#6C81FF" stroke="#6C81FF" stroke-width="0.7937" d="M1025.262,61.148
			l-142.389,98.741"/>
		<path id="path1059-4-8-8" fill="#6C81FF" stroke="#6C81FF" stroke-width="0.7937" d="M834.386,885.179l-77.781,130.31"/>
		<path id="path1059-4-8-8-1" fill="#6C81FF" stroke="#6C81FF" stroke-width="0.7937" d="M834.386,885.179l133.341,143.442"/>
		<path id="path1059-4-8-5-3-0-3-4-1-4-9-9-4-4-8-1-6-5-0-1-5-6-0-1-5" fill="#6C81FF" stroke="#6C81FF" stroke-width="0.7937" d="
			M626.295,689.209l323.248,68.69"/>
		<path id="path1059-4-2" fill="#6C81FF" stroke="#6C81FF" stroke-width="0.7937" d="M548.319,561.988l77.976,127.221"/>
		<path id="path1059-4-2-5" fill="#6C81FF" stroke="#6C81FF" stroke-width="0.7937" d="M644.478,483.138l-18.183,206.071"/>
	</g>
</g>
</svg>
