<?xml version="1.0" encoding="utf-8"?>
<!-- Generator: Adobe Illustrator 16.0.0, SVG Export Plug-In . SVG Version: 6.00 Build 0)  -->
<!DOCTYPE svg PUBLIC "-//W3C//DTD SVG 1.1//EN" "http://www.w3.org/Graphics/SVG/1.1/DTD/svg11.dtd">
<svg version="1.1" id="Layer_5" xmlns="http://www.w3.org/2000/svg" xmlns:xlink="http://www.w3.org/1999/xlink" x="0px" y="0px"
	 width="512px" height="512px" viewBox="0 0 512 512" enable-background="new 0 0 512 512" xml:space="preserve">
<path fill="#F38320" d="M424.256,157.696C438.592,147.544,448,130.864,448,112c0-30.88-25.128-56-56-56s-56,25.12-56,56
	c0,18.864,9.408,35.544,23.744,45.696c-5.096,1.824-10.008,4.016-14.664,6.64c-10.313-25.728-31.248-45.488-56.784-54.664
	C302.607,99.52,312,82.848,312,64c0-30.88-25.128-56-56-56s-56,25.12-56,56c0,18.848,9.392,35.52,23.704,45.672
	c-25.544,9.176-46.472,28.936-56.784,54.664c-4.656-2.624-9.568-4.816-14.664-6.64C166.592,147.544,176,130.864,176,112
	c0-30.88-25.128-56-56-56s-56,25.12-56,56c0,18.864,9.408,35.544,23.744,45.696C50.648,170.992,24,206.392,24,248v64
	c0,17.648,14.352,32,32,32h8v128c0,17.648,14.352,32,32,32c9.608,0,18.128-4.336,24-11.056c5.872,6.72,14.392,11.056,24,11.056h8
	h208h8c9.608,0,18.128-4.336,24-11.056c5.872,6.72,14.392,11.056,24,11.056c17.648,0,32-14.352,32-32V344h8
	c17.648,0,32-14.352,32-32v-64C488,206.392,461.352,170.992,424.256,157.696z M399.72,220.968l-7.72,7.72l-7.72-7.72l4.376-52.792
	c1.12-0.056,2.216-0.176,3.344-0.176s2.224,0.12,3.344,0.168L399.72,220.968z M352,112c0-22.056,17.944-40,40-40s40,17.944,40,40
	s-17.944,40-40,40S352,134.056,352,112z M263.752,180.936L256,188.688l-7.752-7.752l4.48-60.8c1.088-0.04,2.176-0.136,3.272-0.136
	c1.096,0,2.184,0.096,3.271,0.136L263.752,180.936z M216,64c0-22.056,17.944-40,40-40c22.057,0,40,17.944,40,40s-17.943,40-40,40
	C233.944,104,216,86.056,216,64L216,64z M236.52,122.424l-4.768,64.64L256,211.312l24.248-24.248l-4.768-64.64
	c25.735,6.496,47.056,25.592,56,51.136c-21.185,17.256-34.84,43.36-35.393,72.624C285.111,237.328,271.176,232,256,232
	s-29.112,5.328-40.088,14.184c-0.552-29.264-14.208-55.368-35.392-72.624C189.464,148.016,210.784,128.92,236.52,122.424
	L236.52,122.424z M328,344h8v33.768c-12.448-12.72-27.88-22.472-45.168-28.151c5.896-3.849,11.104-8.632,15.448-14.152
	C312.08,340.832,319.768,344,328,344z M294.928,439.752L267.359,488h-0.695l34.064-116.88c3.008,1.592,5.936,3.304,8.743,5.192
	l-4.911,27.808l-18.297,18.296L294.928,439.752z M244.64,488l-27.568-48.248l8.664-17.328l-18.296-18.296l-4.912-27.808
	c2.808-1.889,5.736-3.6,8.736-5.192L245.336,488H244.64z M176,344h8c8.24,0,15.92-3.16,21.72-8.527
	c4.344,5.52,9.552,10.303,15.448,14.144c-17.288,5.672-32.72,15.424-45.168,28.151V344z M304,296c0,26.473-21.527,48-48,48
	c-26.472,0-48-21.527-48-48s21.528-48,48-48C282.473,248,304,269.527,304,296z M285.896,364.832L256,467.408l-29.904-102.576
	C235.52,361.729,245.552,360,256,360C266.439,360,276.48,361.729,285.896,364.832z M127.72,220.968l-7.72,7.72l-7.72-7.72
	l4.376-52.792c1.12-0.056,2.216-0.176,3.344-0.176s2.224,0.12,3.344,0.168L127.72,220.968z M80,112c0-22.056,17.944-40,40-40
	s40,17.944,40,40s-17.944,40-40,40S80,134.056,80,112z M128,472V304h-16v168c0,8.824-7.176,16-16,16c-8.824,0-16-7.176-16-16V216H64
	v112h-8c-8.824,0-16-7.176-16-16v-64c0-37.344,25.76-68.704,60.416-77.472L95.72,227.04L120,251.312l24.28-24.28l-4.696-56.512
	C174.24,179.296,200,210.656,200,248v17.088c-5.088,9.176-8,19.704-8,30.912c0,8.855,1.808,17.288,5.072,24.968
	C194.128,325.264,189.352,328,184,328h-8V216h-16v182.608c-10.088,16.808-16,36.399-16,57.392v32C135.176,488,128,480.824,128,472
	L128,472z M160,456c0-26.56,10.848-50.632,28.344-68.032l4.216,23.904l13.704,13.704l-7.336,14.672L226.216,488H200v-40h-16v40h-24
	V456z M352,488h-24v-40h-16v40h-26.216l27.288-47.752l-7.336-14.672l13.704-13.704l4.216-23.904C341.152,405.368,352,429.44,352,456
	V488z M472,312c0,8.824-7.176,16-16,16h-8V216h-16v256c0,8.824-7.176,16-16,16s-16-7.176-16-16V304h-16v168c0,8.824-7.176,16-16,16
	v-32c0-20.992-5.912-40.584-16-57.392V216h-16v112h-8c-5.344,0-10.128-2.736-13.072-7.032C318.192,313.288,320,304.855,320,296
	c0-11.208-2.912-21.744-8-30.912V248c0-37.344,25.76-68.704,60.416-77.472l-4.696,56.512L392,251.312l24.28-24.28l-4.696-56.512
	C446.24,179.296,472,210.656,472,248V312z"/>
</svg>
