<?xml version="1.0" encoding="utf-8"?>
<!-- Generator: Adobe Illustrator 16.0.0, SVG Export Plug-In . SVG Version: 6.00 Build 0)  -->
<!DOCTYPE svg PUBLIC "-//W3C//DTD SVG 1.1//EN" "http://www.w3.org/Graphics/SVG/1.1/DTD/svg11.dtd">
<svg version="1.1" id="Capa_1" xmlns="http://www.w3.org/2000/svg" xmlns:xlink="http://www.w3.org/1999/xlink" x="0px" y="0px"
	 width="612px" height="612px" viewBox="0 0 612 612" enable-background="new 0 0 612 612" xml:space="preserve">
<g>
	<path fill="#F38320" d="M209.397,293.688c-4.056-4.056-10.611-4.056-14.667,0c-4.056,4.056-4.056,10.611,0,14.667l103.511,103.511
		c1.929,1.961,4.564,3.05,7.323,3.05c0.072,0,0.145-0.041,0.218-0.041s0.135,0.041,0.218,0.041c3.454,0,6.358-1.794,8.246-4.388
		L416.845,307.93c4.056-4.057,4.056-10.611,0-14.668c-4.056-4.056-10.611-4.056-14.667,0l-85.805,85.805V10.373
		C316.373,4.637,311.736,0,306,0s-10.373,4.637-10.373,10.373v369.564L209.397,293.688z"/>
	<path fill="#F38320" d="M378.61,165.966c-5.736,0-10.373,4.637-10.373,10.373s4.637,10.373,10.373,10.373h134.847v404.542H98.542
		V186.712H233.39c5.736,0,10.373-4.637,10.373-10.373s-4.637-10.373-10.373-10.373H77.796V612h456.407V165.966H378.61z"/>
</g>
</svg>
