<?xml version="1.0" encoding="utf-8"?>
<!-- Generator: Adobe Illustrator 16.0.0, SVG Export Plug-In . SVG Version: 6.00 Build 0)  -->
<!DOCTYPE svg PUBLIC "-//W3C//DTD SVG 1.1//EN" "http://www.w3.org/Graphics/SVG/1.1/DTD/svg11.dtd">
<svg version="1.1" id="Capa_1" xmlns="http://www.w3.org/2000/svg" xmlns:xlink="http://www.w3.org/1999/xlink" x="0px" y="0px"
	 width="284.93px" height="284.93px" viewBox="0 0 284.93 284.93" enable-background="new 0 0 284.93 284.93" xml:space="preserve">
<g>
	<path d="M2.841,89.644l133.055,133.045c1.899,1.903,4.088,2.856,6.563,2.856c2.474,0,4.665-0.953,6.566-2.856L282.068,89.644
		c1.905-1.905,2.855-4.093,2.855-6.567c0-2.476-0.953-4.664-2.854-6.565L267.797,62.24c-1.901-1.902-4.094-2.854-6.565-2.854
		c-2.475,0-4.664,0.951-6.567,2.854L142.461,174.443L30.253,62.234c-1.902-1.903-4.094-2.85-6.563-2.85
		c-2.479,0-4.668,0.951-6.57,2.85L2.847,76.509C0.947,78.41,0,80.602,0,83.074C-0.006,85.551,0.94,87.741,2.841,89.644z"/>
</g>
</svg>
