<?xml version="1.0" encoding="utf-8"?>
<!-- Generator: Adobe Illustrator 16.0.0, SVG Export Plug-In . SVG Version: 6.00 Build 0)  -->
<!DOCTYPE svg PUBLIC "-//W3C//DTD SVG 1.1//EN" "http://www.w3.org/Graphics/SVG/1.1/DTD/svg11.dtd">
<svg version="1.1" id="Layer_1" xmlns="http://www.w3.org/2000/svg" xmlns:xlink="http://www.w3.org/1999/xlink" x="0px" y="0px"
	 width="512px" height="512px" viewBox="0 0 512 512" enable-background="new 0 0 512 512" xml:space="preserve">
<path fill="#F38320" d="M160.867,130.917c3.496,2.702,8.52,2.06,11.222-1.436c2.977-3.851,2.029-8.788-1.318-11.375
	c-3.299-2.55-8.315-2.312-11.34,1.588C156.729,123.19,157.372,128.214,160.867,130.917L160.867,130.917z"/>
<path fill="#F38320" d="M253.583,297.754c3.452,1.096-8.356,4.181,144.835-44.367c7.421-2.351,7.424-12.899,0-15.252l-44.546-14.116
	c-4.211-1.335-8.708,0.997-10.043,5.209c-1.335,4.212,0.998,8.708,5.209,10.043l20.48,6.49l-113.52,35.976l-113.518-35.976
	l63.263-20.048c51.895,16.446,48.851,15.878,51.589,15.414c1.054-0.177,141.297-44.641,142.155-45.057
	c4.56-2.205,5.95-8.061,2.84-12.087C252.357-9.779,262.116,2.366,260.157,1.172c-2.259-1.378-5.07-1.573-7.542-0.415
	c-2.524,1.176,3.583-6.084-77.653,98.874c-2.704,3.494-2.064,8.519,1.43,11.223c3.495,2.704,8.519,2.064,11.223-1.43l60.387-78.02
	V222.32L129.34,184.715l22-28.423c2.704-3.494,2.064-8.519-1.43-11.223c-3.494-2.703-8.519-2.063-11.223,1.43
	c-31.39,40.558-30.024,38.192-30.54,40.884c-0.233,1.219-0.177,2.583,0.205,3.831c1.705,5.573,3.383,4.705,70.911,26.105
	l-65.679,20.814c-7.421,2.352-7.425,12.9,0,15.252l65.68,20.814l-65.68,20.813c-7.421,2.353-7.425,12.9,0,15.253
	c152.787,48.419,141.373,45.466,144.835,44.367l140.001-44.367c7.421-2.351,7.424-12.899,0-15.253l-39.488-12.512
	c-4.213-1.332-8.709,0.998-10.043,5.209c-1.335,4.213,0.998,8.709,5.209,10.043l15.423,4.889L256,338.617l-113.519-35.975
	l63.263-20.049L253.583,297.754z M264,222.32V31.404l118.661,153.311L264,222.32z"/>
<path fill="#F38320" d="M393.584,329.145L256,372.746l-137.584-43.602c-7.601-2.409-13.675,6.641-8.551,12.762
	C235.173,491.586,249.74,508.99,249.828,509.091c3.211,3.837,8.96,3.861,12.191,0.168c24.863-28.602-66.587,79.553,140.116-167.353
	C407.256,335.789,401.189,326.732,393.584,329.145L393.584,329.145z M248,386.996v94.987l-108.237-129.29L248,386.996z M264,481.983
	v-94.987l108.237-34.303L264,481.983z"/>
</svg>
