<?xml version="1.0" encoding="utf-8"?>
<!-- Generator: Adobe Illustrator 16.0.0, SVG Export Plug-In . SVG Version: 6.00 Build 0)  -->
<!DOCTYPE svg PUBLIC "-//W3C//DTD SVG 1.1//EN" "http://www.w3.org/Graphics/SVG/1.1/DTD/svg11.dtd">
<svg version="1.1" id="Layer_1" xmlns="http://www.w3.org/2000/svg" xmlns:xlink="http://www.w3.org/1999/xlink" x="0px" y="0px"
	 width="198px" height="90.667px" viewBox="0 0 198 90.667" enable-background="new 0 0 198 90.667" xml:space="preserve">
<g>
	<defs>
		<rect id="SVGID_1_" y="-1" width="198" height="104"/>
	</defs>
	<clipPath id="SVGID_2_">
		<use xlink:href="#SVGID_1_"  overflow="visible"/>
	</clipPath>
	<path clip-path="url(#SVGID_2_)" d="M102.239,70.677c-1.261,0.63-3.464,0.945-6.299,0.945c-6.614,0-10.078-3.465-10.078-10.394
		V37.607h-5.04v-6.929h5.04v-6.614l9.448-2.834v9.133h6.93v7.244h-6.93v22.046c0,3.149,1.26,4.725,3.78,4.725
		c0.944,0,1.889-0.315,3.149-0.945V70.677z"/>
	<rect x="106.551" y="30.678" clip-path="url(#SVGID_2_)" width="9.449" height="40.314"/>
	<path clip-path="url(#SVGID_2_)" fill="#FF8300" d="M152.39,78.666c18.96,0,34.33-15.369,34.33-34.33
		c0-18.96-15.37-34.33-34.33-34.33c-18.959,0-34.329,15.37-34.329,34.33C118.061,63.297,133.431,78.666,152.39,78.666"/>
	<path clip-path="url(#SVGID_2_)" fill="#FF8300" d="M151.323,0.558c-8.791,0.34-19.92,4.616-28.224,11.762
		c8.304-6.236,15.105-9.242,27.389-9.242c22.677,0,42.577,18.109,42.577,40.786c0,22.677-18.267,40.943-40.943,40.943
		c-8.62,0-17.784-5.05-24.696-9.162l3.941-1.155l-11.158-2.009l5.027,8.423l0.92-3.294c7.383,5.693,16.862,9.875,26.852,9.875
		c24.251,0,43.778-19.527,43.778-43.779C196.786,19.455,177.715-0.464,151.323,0.558"/>
	<path clip-path="url(#SVGID_2_)" d="M111.754,28.743l-9.291-4.776l-0.605-10.276l8.871-5.832l9.313,4.788l0.421,10.608
		L111.754,28.743z M104.394,22.71l7.26,3.732l6.765-4.263l-0.329-8.287l-7.236-3.72l-6.931,4.556L104.394,22.71z"/>
	<polygon clip-path="url(#SVGID_2_)" points="118.983,23.606 109.851,18.912 109.79,9.022 111.79,9.009 111.843,17.687 
		119.897,21.828 	"/>
	
		<rect x="106.137" y="16.335" transform="matrix(0.5621 0.8271 -0.8271 0.5621 64.1322 -79.4924)" clip-path="url(#SVGID_2_)" width="2" height="8.968"/>
	<path clip-path="url(#SVGID_2_)" fill="#FFFFFF" d="M172.803,48.254c-0.945-1.26-2.204-2.834-3.464-3.464
		c-0.945-0.63-2.52-0.945-4.725-1.575c1.89-0.63,3.465-1.26,4.725-2.52c1.26-0.944,1.89-2.204,2.519-3.464
		c0.631-1.26,0.945-2.52,0.945-4.095c0-1.574-0.63-3.779-1.574-5.039c-1.26-1.574-2.52-2.834-4.409-3.464
		c-0.945-0.315-2.205-0.945-3.465-0.945v-7.559h-7.874v6.929h-5.039v-6.929h-7.559v6.929h-11.653v5.669h1.574
		c1.26,0,1.891,0,2.205,0.315c0.63,0.315,0.63,0.315,0.945,0.63c0.314,0.315,0.314,0.945,0.314,2.519v23.307
		c0,1.261,0,1.891-0.314,2.521c-0.63,0.63-0.63,0.63-1.26,0.944c-0.315,0.314-1.261,0.314-2.205,0.314h-1.574v5.67h11.653v6.929
		h7.559v-6.929h5.039v6.929h7.559v-7.874c1.574-0.314,2.204-0.314,3.149-0.63c2.52-0.944,4.725-2.52,5.983-4.409
		c1.261-1.574,1.891-3.779,1.891-6.299C174.063,51.404,173.748,50.145,172.803,48.254 M147.606,30.302h5.039
		c2.835,0,5.04,0.315,5.984,0.315c0.945,0.315,1.89,0.945,2.521,1.574c0.63,0.63,0.944,1.575,0.944,2.835
		c0,0.945-0.314,2.205-0.944,2.835c-0.631,0.63-1.575,1.26-2.521,1.575c-1.259,0.315-2.834,0.63-5.669,0.63h-5.039L147.606,30.302z
		 M161.15,56.128c-0.945,0.945-1.891,1.575-3.149,2.205c-1.26,0.315-2.521,0.315-4.725,0.315h-3.149c-0.945,0-1.26,0-1.89-0.315
		l-0.631-0.63v-2.52v-9.134h5.67c2.52,0,4.409,0.315,5.669,0.63c1.26,0.315,2.205,1.26,2.52,2.205
		c0.63,0.945,0.945,1.575,0.945,3.15C162.41,53.924,162.095,55.184,161.15,56.128"/>
	<path clip-path="url(#SVGID_2_)" fill="#8FC641" d="M45.736,11.569c-19.308,0-34.959,15.652-34.959,34.96
		c0,19.308,15.651,34.959,34.959,34.959s34.96-15.651,34.96-34.959C80.696,27.221,65.044,11.569,45.736,11.569"/>
	<path clip-path="url(#SVGID_2_)" fill="#8FC641" d="M44.993,12.199c-18.96,0-34.33,15.37-34.33,34.33s15.37,34.33,34.33,34.33
		c18.959,0,34.33-15.37,34.33-34.33S63.952,12.199,44.993,12.199"/>
	<path clip-path="url(#SVGID_2_)" fill="#8FC641" d="M46.677,90.308c8.791-0.34,24.771-5.984,32.645-16.063
		c-7.559,8.818-19.527,13.543-31.81,13.543c-22.677,0-42.578-18.109-42.578-40.787c0-22.677,18.268-40.774,40.944-40.944
		c10.532-0.079,17.786,4.105,24.477,9.03l-2.882,0.782l8.348,2.035l-2.467-7.898l-1.51,3.249C64.461,7.562,54.981,3.38,44.992,3.38
		C20.741,3.38,1.214,22.908,1.214,47.16C1.214,71.41,20.285,91.33,46.677,90.308"/>
	<path clip-path="url(#SVGID_2_)" fill="#FFFFFF" d="M61.466,55.076c0,6.613-4.724,11.968-12.913,13.543v7.559h-7.244v-6.929
		c-5.039-0.315-9.763-1.575-12.283-3.15l2.205-8.503c3.149,1.574,7.558,3.149,11.968,3.149c4.094,0,7.244-1.575,7.244-4.409
		c0-2.835-2.52-4.726-7.559-6.3c-7.559-2.834-13.228-6.298-13.228-13.543c0-6.298,4.724-11.653,12.283-12.913v-6.928h7.244v6.299
		c5.039,0.314,8.189,1.259,10.708,2.519l-2.204,8.189c-1.89-0.945-5.355-2.52-10.394-2.52c-4.724,0-6.299,1.89-6.299,4.095
		c0,2.519,2.52,3.779,8.819,6.299C58.002,44.368,61.466,48.462,61.466,55.076"/>
</g>
</svg>
