<?xml version="1.0" encoding="utf-8"?>
<!-- Generator: Adobe Illustrator 16.0.0, SVG Export Plug-In . SVG Version: 6.00 Build 0)  -->
<!DOCTYPE svg PUBLIC "-//W3C//DTD SVG 1.1//EN" "http://www.w3.org/Graphics/SVG/1.1/DTD/svg11.dtd">
<svg version="1.1" id="Layer_1" xmlns="http://www.w3.org/2000/svg" xmlns:xlink="http://www.w3.org/1999/xlink" x="0px" y="0px"
	 width="612px" height="612px" viewBox="0 0 612 612" enable-background="new 0 0 612 612" xml:space="preserve">
<g>
	<g>
		<path fill="#F38320" d="M587.278,281.278H24.722C11.068,281.278,0,292.346,0,306s11.068,24.722,24.722,24.722h562.557
			C600.933,330.722,612,319.654,612,306C612,292.347,600.933,281.278,587.278,281.278z"/>
	</g>
</g>
<g>
	<g>
		<path fill="#F38320" d="M587.278,93.759H24.722C11.068,93.759,0,104.828,0,118.48s11.068,24.722,24.722,24.722h562.557
			c13.654,0,24.722-11.069,24.722-24.722S600.933,93.759,587.278,93.759z"/>
	</g>
</g>
<g>
	<g>
		<path fill="#F38320" d="M587.278,468.798H24.722C11.068,468.798,0,479.865,0,493.52s11.068,24.722,24.722,24.722h562.557
			c13.654,0,24.722-11.067,24.722-24.722S600.933,468.798,587.278,468.798z"/>
	</g>
</g>
</svg>
