<?xml version="1.0" encoding="utf-8"?>
<!-- Generator: Adobe Illustrator 16.0.0, SVG Export Plug-In . SVG Version: 6.00 Build 0)  -->
<!DOCTYPE svg PUBLIC "-//W3C//DTD SVG 1.1//EN" "http://www.w3.org/Graphics/SVG/1.1/DTD/svg11.dtd">
<svg version="1.1" id="Capa_1" xmlns="http://www.w3.org/2000/svg" xmlns:xlink="http://www.w3.org/1999/xlink" x="0px" y="0px"
	 width="612px" height="612px" viewBox="0 0 612 612" enable-background="new 0 0 612 612" xml:space="preserve">
<g>
	<g>
		<path fill="#F38320" d="M361.563,197.497c-2.779-2.22-6.291-3.314-9.839-3.066h-53.663l50.469-56.347l4.728-5.238l2.428-3.066
			c0.844-1.186,1.53-2.474,2.045-3.833c0.579-1.464,0.881-3.025,0.894-4.6c0.356-3.726-1.489-7.32-4.728-9.199
			c-4.198-1.926-8.803-2.805-13.415-2.556h-62.735c-3.348-0.228-6.663,0.771-9.327,2.811c-2.201,1.874-3.426,4.649-3.322,7.539
			c0,4.344,1.449,6.984,4.344,7.921c4.153,1.181,8.463,1.698,12.777,1.533h40.886c-1.704,2.385-3.918,5.196-6.645,8.433
			l-10.477,11.755l-14.183,15.333l-16.482,18.271c-5.707,6.388-9.455,10.648-11.244,12.777c-4.057,4.927-3.552,12.167,1.15,16.482
			c3.37,2.539,7.548,3.764,11.755,3.45h74.617c3.57,0.279,7.119-0.767,9.967-2.939c2.17-1.896,3.387-4.657,3.321-7.538
			C364.995,202.418,363.78,199.521,361.563,197.497z"/>
	</g>
</g>
<g>
	<g>
		<path fill="#F38320" d="M474.64,262.788c-2.236-1.789-5.068-2.656-7.922-2.428h-42.931l40.247-44.975l3.833-4.216l2.428-2.939
			c0.686-0.945,1.243-1.976,1.661-3.066c0.484-1.177,0.744-2.432,0.767-3.705c0.321-2.982-1.127-5.877-3.705-7.411
			c-3.358-1.543-7.042-2.246-10.732-2.044h-50.597c-2.666-0.148-5.298,0.667-7.411,2.3c-1.767,1.485-2.755,3.699-2.684,6.005
			c0,3.407,1.15,5.537,3.45,6.388c3.325,0.922,6.775,1.31,10.222,1.15h32.709c-1.277,1.916-3.066,4.088-5.366,6.771l-8.433,9.455
			l-10.988,12.777l-12.777,14.566c-4.6,5.111-7.623,8.604-9.071,10.477c-3.011,3.862-2.624,9.372,0.895,12.777
			c2.682,1.995,5.995,2.948,9.327,2.683h59.285c2.833,0.227,5.65-0.591,7.922-2.3c1.689-1.532,2.622-3.726,2.555-6.005
			C477.382,266.67,476.402,264.385,474.64,262.788z"/>
	</g>
</g>
<g>
	<g>
		<path fill="#F38320" d="M608.67,190.981c-2.779-2.22-6.291-3.314-9.838-3.067h-54.047l50.469-56.346l4.728-5.239l3.066-3.705
			c0.844-1.185,1.53-2.474,2.045-3.833c0.579-1.465,0.882-3.025,0.895-4.6c0.355-3.726-1.49-7.319-4.728-9.199
			c-4.199-1.926-8.804-2.803-13.416-2.555H524.47c-3.348-0.229-6.663,0.771-9.327,2.811c-2.201,1.874-3.426,4.649-3.322,7.539
			c0,4.344,1.449,6.984,4.345,7.922c4.152,1.18,8.463,1.698,12.776,1.533h40.887c-1.704,2.384-3.918,5.195-6.645,8.433
			l-10.604,12.01l-13.799,15.333l-16.482,18.271c-5.707,6.389-9.455,10.648-11.244,12.777c-4.057,4.927-3.552,12.167,1.15,16.482
			c3.37,2.54,7.548,3.765,11.755,3.45h74.489c3.606,0.454,7.253-0.458,10.222-2.555c2.171-1.896,3.388-4.657,3.322-7.539
			C612.103,195.901,610.887,193.004,608.67,190.981z"/>
	</g>
</g>
<g>
	<g>
		<path fill="#F38320" d="M564.59,406.146c-3.641-3.768-9.211-4.934-14.055-2.939c-138.483,57.327-297.22-8.461-354.549-146.946
			c-29.111-70.323-27.354-149.639,4.842-218.603c3.017-6.379,0.291-13.996-6.088-17.013c-3.274-1.549-7.053-1.634-10.394-0.236
			C32.522,82.774-39.999,256.41,22.368,408.234S258.37,632.579,410.195,570.213C479.44,541.769,535.4,488.24,566.891,420.326
			C569.106,415.576,568.194,409.953,564.59,406.146z M297.423,567.135c-150.093-0.025-271.746-121.72-271.72-271.813
			c0.016-98.555,53.389-189.377,139.478-237.35c-10.194,30.259-15.374,61.981-15.332,93.911
			c0.008,164.205,133.13,297.314,297.335,297.306c27.52-0.002,54.905-3.823,81.375-11.357
			C479.008,517.952,391.626,566.835,297.423,567.135z"/>
	</g>
</g>
</svg>
