<?xml version="1.0" encoding="utf-8"?>
<!-- Generator: Adobe Illustrator 16.0.0, SVG Export Plug-In . SVG Version: 6.00 Build 0)  -->
<!DOCTYPE svg PUBLIC "-//W3C//DTD SVG 1.1//EN" "http://www.w3.org/Graphics/SVG/1.1/DTD/svg11.dtd">
<svg version="1.1" id="Capa_1" xmlns="http://www.w3.org/2000/svg" xmlns:xlink="http://www.w3.org/1999/xlink" x="0px" y="0px"
	 width="512px" height="512px" viewBox="0 0 512 512" enable-background="new 0 0 512 512" xml:space="preserve">
<path fill="#F38320" d="M451,196C451,87.93,363.52,0,256,0C148.48,0,61,87.93,61,196v7l153.78,129H151v180h210V332h-63.779L451,203
	V196z M415.54,153.58c-7.59-3.24-15.91-5.01-24.54-5.01c-11.56,0-22.54,3.17-31.99,8.8c-3.95-38.06-14.68-80.4-35.55-112.85
	C368.41,64.86,402.73,104.86,415.54,153.58L415.54,153.58z M271,33.79c35.21,17.66,52.77,81.31,57.58,121.19
	c-8.39-4.13-17.78-6.41-27.58-6.41c-10.76,0-21.02,2.74-30,7.65V33.79z M271,362v30h-30v-30H271z M241,33.79v122.44
	c-8.99-4.92-19.24-7.66-30-7.66c-9.8,0-19.19,2.28-27.58,6.41C188.22,115.24,205.83,51.43,241,33.79z M188.54,44.52
	c-20.87,32.45-31.6,74.79-35.55,112.85c-9.45-5.63-20.43-8.8-31.99-8.8c-8.63,0-16.95,1.77-24.54,5.01
	C109.27,104.86,143.59,64.86,188.54,44.52z M94.67,192.08c5.97-8.33,15.68-13.51,26.33-13.51c12.44,0,23.59,7.06,29.01,17.96
	c53.584,92.07,47.218,81.131,47.73,82.01L94.67,192.08z M182.82,194.93c5.69-9.99,16.36-16.36,28.18-16.36
	c13.24,0,25.03,7.99,30,20.1v93.87L182.82,194.93z M301,422v-60h30v120H181V362h30v60H301z M271,292.54v-93.83
	c4.96-12.13,16.75-20.14,30-20.14c11.82,0,22.49,6.37,28.18,16.36L271,292.54z M314.26,278.54c0.514-0.881-5.861,10.073,47.73-82.01
	c5.42-10.9,16.569-17.96,29.01-17.96c10.65,0,20.36,5.18,26.33,13.51L314.26,278.54z"/>
</svg>
