<?xml version="1.0" encoding="utf-8"?>
<!-- Generator: Adobe Illustrator 16.0.0, SVG Export Plug-In . SVG Version: 6.00 Build 0)  -->
<!DOCTYPE svg PUBLIC "-//W3C//DTD SVG 1.1//EN" "http://www.w3.org/Graphics/SVG/1.1/DTD/svg11.dtd">
<svg version="1.1" id="Layer_1" xmlns="http://www.w3.org/2000/svg" xmlns:xlink="http://www.w3.org/1999/xlink" x="0px" y="0px"
	 width="612px" height="612px" viewBox="0 0 612 612" enable-background="new 0 0 612 612" xml:space="preserve">
<g>
	<g>
		<path fill="#F38320" d="M554.925,253.513L119.082,9.646C100.701-2.239,77.401-3.217,58.061,7.132
			C38.469,17.619,26.297,37.936,26.297,60.159V551.84c0,22.224,12.172,42.541,31.763,53.025c19.241,10.3,42.545,9.433,61.023-2.512
			l435.844-243.869c19.27-10.781,30.775-30.402,30.775-52.484C585.702,283.918,574.196,264.296,554.925,253.513z M408.41,217.479
			l-60.171,60.17L135.199,64.608L408.41,217.479z M66.392,558.596V53.402L319.891,306L66.392,558.596z M135.199,547.391
			L348.241,334.35l60.171,60.171L135.199,547.391z M535.349,323.495l-90.58,50.683L376.591,306l68.177-68.177l90.578,50.681
			c9.259,5.182,10.26,13.961,10.26,17.496C545.605,309.535,544.607,318.313,535.349,323.495z"/>
	</g>
</g>
</svg>
