<?xml version="1.0" encoding="utf-8"?>
<!-- Generator: Adobe Illustrator 16.0.0, SVG Export Plug-In . SVG Version: 6.00 Build 0)  -->
<!DOCTYPE svg PUBLIC "-//W3C//DTD SVG 1.1//EN" "http://www.w3.org/Graphics/SVG/1.1/DTD/svg11.dtd">
<svg version="1.1" id="Layer_1" xmlns="http://www.w3.org/2000/svg" xmlns:xlink="http://www.w3.org/1999/xlink" x="0px" y="0px"
	 width="487px" height="487px" viewBox="0 0 487 487" enable-background="new 0 0 487 487" xml:space="preserve">
<path fill="#F38320" d="M220.858,265.783c-0.901-0.195-1.826-0.23-2.738-0.094c-9.146-1.064-16.046-8.803-16.062-18.008
	c0-4.412-3.577-7.989-7.988-7.989c-4.412,0-7.988,3.577-7.988,7.989c0.023,15.371,10.305,28.836,25.127,32.904v7.988
	c0,4.411,3.577,7.988,7.988,7.988c4.411,0,7.988-3.577,7.988-7.988v-7.505c17.107-3.581,28.735-19.515,26.937-36.898
	c-1.802-17.385-16.448-30.596-33.926-30.6c-10.017,0-18.137-8.121-18.137-18.137s8.121-18.137,18.137-18.137
	c10.016,0,18.137,8.121,18.137,18.137c0,4.412,3.577,7.988,7.988,7.988c4.411,0,7.988-3.577,7.988-7.988
	c-0.023-16.14-11.331-30.061-27.124-33.392v-7.271c0-4.412-3.577-7.988-7.988-7.988c-4.412,0-7.988,3.577-7.988,7.988v7.758
	c-16.483,4.501-27.093,20.505-24.823,37.441s16.721,29.578,33.81,29.574c9.884,0,17.946,7.914,18.125,17.794
	C238.503,257.218,230.734,265.424,220.858,265.783z"/>
<path fill="#F38320" d="M104.358,222.172c0,63.977,51.861,115.837,115.837,115.837c63.975,0,115.836-51.86,115.836-115.837
	c0-63.976-51.861-115.837-115.836-115.837C156.25,106.405,104.432,158.228,104.358,222.172z M220.195,122.312
	c55.153,0,99.86,44.708,99.86,99.86c0,55.152-44.707,99.86-99.86,99.86s-99.86-44.708-99.86-99.86
	C120.397,167.046,165.069,122.374,220.195,122.312z"/>
<path fill="#F38320" d="M375.411,357.702l-62.576,29.565c-8.64-16.069-25.212-26.297-43.451-26.812l-57.766-1.587
	c-9.147-0.262-18.122-2.578-26.254-6.779l-5.878-3.047c-30.096-15.688-65.969-15.648-96.034,0.102l0.367-13.316
	c0.121-4.411-3.354-8.086-7.766-8.207l-63.344-1.742c-4.411-0.121-8.082,3.354-8.203,7.766L0.679,472.649
	c-0.121,4.412,3.354,8.086,7.766,8.207l63.344,1.743h0.218c4.33,0,7.871-3.443,7.988-7.77l0.183-6.65l16.456-8.811
	c6.459-3.476,14.011-4.303,21.067-2.306l98.269,27.58c0.171,0.051,0.343,0.09,0.519,0.129c7.103,1.486,14.342,2.231,21.597,2.228
	c15.368,0.008,30.556-3.304,44.524-9.717c0.343-0.155,0.675-0.339,0.991-0.546l142.48-92.161c3.55-2.297,4.696-6.958,2.617-10.641
	C418.121,355.167,394.66,348.018,375.411,357.702z M16.87,465.106l3.385-123.037l47.372,1.303l-3.386,123.041L16.87,465.106z
	 M275.414,463.016c-17.354,7.832-36.735,9.993-55.387,6.183l-98.003-27.511c-11.031-3.116-22.837-1.825-32.928,3.601l-8.409,4.505
	l2.25-81.805c26.648-17.725,60.824-19.546,89.204-4.759l5.878,3.046c10.274,5.305,21.605,8.23,33.162,8.566l57.771,1.587
	c16.226,0.468,30.006,12.021,33.299,27.92l-86.049-2.376c-4.412-0.121-8.082,3.358-8.207,7.767
	c-0.121,4.411,3.358,8.085,7.766,8.206l94.962,2.613h0.222c4.326-0.004,7.863-3.448,7.98-7.77c0.098-3.472-0.16-6.947-0.772-10.363
	l64.183-30.326c0.063-0.027,0.125-0.059,0.188-0.09c9.104-4.607,20.111-3.066,27.6,3.865L275.414,463.016z"/>
<path fill="#F38320" d="M228.183,83.876V7.988c0-4.412-3.577-7.988-7.988-7.988c-4.412,0-7.988,3.577-7.988,7.988v75.888
	c0,4.412,3.577,7.988,7.988,7.988C224.606,91.864,228.183,88.288,228.183,83.876z"/>
<path fill="#F38320" d="M288.094,83.876V47.929c0-4.412-3.576-7.988-7.987-7.988s-7.988,3.577-7.988,7.988v35.947
	c0,4.412,3.577,7.988,7.988,7.988S288.094,88.288,288.094,83.876z"/>
<path fill="#F38320" d="M168.271,83.876V47.929c0-4.412-3.577-7.988-7.988-7.988s-7.988,3.577-7.988,7.988v35.947
	c0,4.412,3.577,7.988,7.988,7.988S168.271,88.288,168.271,83.876z"/>
</svg>
