<?xml version="1.0" encoding="utf-8"?>
<!-- Generator: Adobe Illustrator 16.0.0, SVG Export Plug-In . SVG Version: 6.00 Build 0)  -->
<!DOCTYPE svg PUBLIC "-//W3C//DTD SVG 1.1//EN" "http://www.w3.org/Graphics/SVG/1.1/DTD/svg11.dtd">
<svg version="1.1" id="Capa_1" xmlns="http://www.w3.org/2000/svg" xmlns:xlink="http://www.w3.org/1999/xlink" x="0px" y="0px"
	 width="612px" height="612px" viewBox="0 0 612 612" enable-background="new 0 0 612 612" xml:space="preserve">
<g>
	<g>
		<g>
			<path fill="#F38320" d="M363.905,90.854c0-31.981-25.925-57.905-57.905-57.905s-57.905,25.924-57.905,57.905v193.017
				c-53.274,0.064-96.445,43.235-96.509,96.508v103.284l77.207,96.509V612h38.604v-45.378l-77.207-96.509v-89.734
				c0-31.98,25.925-57.904,57.905-57.904v135.111h38.604V90.854c0-10.661,8.641-19.302,19.302-19.302
				c10.66,0,19.302,8.641,19.302,19.302v169.16l63.116,17.217l10.153-37.252l-34.743-9.458L363.905,90.854z"/>
			
				<rect x="430.052" y="254.64" transform="matrix(0.9648 0.2629 -0.2629 0.9648 87.8302 -108.5027)" fill="#F38320" width="38.602" height="38.603"/>
			<polygon fill="#F38320" points="500.156,307.689 537.621,317.919 537.621,489.762 479.716,566.969 479.716,612 518.319,612 
				518.319,579.824 576.225,502.617 576.225,288.426 510.309,270.456 			"/>
			<polygon fill="#F38320" points="107.327,27.292 80.035,0 8.483,71.552 80.035,143.103 107.327,115.811 82.37,90.854 
				132.284,90.854 132.284,52.25 82.37,52.25 			"/>
			<rect x="170.888" y="52.25" fill="#F38320" width="38.604" height="38.604"/>
			<polygon fill="#F38320" points="504.673,115.811 531.965,143.103 603.517,71.552 531.965,0 504.673,27.292 529.63,52.25 
				479.716,52.25 479.716,90.854 529.63,90.854 			"/>
			<rect x="402.509" y="52.25" fill="#F38320" width="38.604" height="38.604"/>
		</g>
	</g>
</g>
</svg>
