<?xml version="1.0" encoding="utf-8"?>
<!-- Generator: Adobe Illustrator 16.0.0, SVG Export Plug-In . SVG Version: 6.00 Build 0)  -->
<!DOCTYPE svg PUBLIC "-//W3C//DTD SVG 1.1//EN" "http://www.w3.org/Graphics/SVG/1.1/DTD/svg11.dtd">
<svg version="1.1" id="Capa_1" xmlns="http://www.w3.org/2000/svg" xmlns:xlink="http://www.w3.org/1999/xlink" x="0px" y="0px"
	 width="612px" height="612px" viewBox="0 0 612 612" enable-background="new 0 0 612 612" xml:space="preserve">
<g>
	<g>
		<path fill="#F38320" d="M541.519,431.894c-3.356-1.392-7.22-0.623-9.79,1.946l-98.166,98.166c-2.569,2.57-3.338,6.434-1.946,9.79
			c1.389,3.357,4.667,5.545,8.299,5.545h98.167c4.962,0,8.982-4.021,8.982-8.983v-98.166
			C547.063,436.559,544.875,433.283,541.519,431.894z M461.599,529.376l67.498-67.498v67.498H461.599z"/>
	</g>
</g>
<g>
	<g>
		<path fill="#F38320" d="M606.456,287.912c-3.356-1.392-7.22-0.623-9.79,1.946l-26.902,26.903v-182.92
			c0-4.962-4.022-8.983-8.982-8.983h-69.02l25.054-25.054c0.004-0.004,0.008-0.008,0.011-0.012l24.141-24.141
			c5.173-5.172,8.021-12.052,8.021-19.368s-2.849-14.193-8.021-19.368L513.052,9.001c-5.172-5.172-12.053-8.021-19.367-8.021
			c-7.315,0-14.194,2.849-19.368,8.021l-24.152,24.152l-29.185,29.185l-62.519,62.519H79.632V35.991
			c0-4.961-4.022-8.982-8.983-8.982C31.694,27.011,0,58.702,0,97.66v381.528c0,0.663,0.077,1.309,0.213,1.931
			c1.241,16.529,8.392,31.889,20.344,43.548c12.775,12.459,29.64,19.322,47.489,19.322h274.489l-51.696,51.695
			c-2.569,2.57-3.337,6.433-1.947,9.79c1.39,3.356,4.667,5.545,8.299,5.545h305.828c4.96,0,8.982-4.021,8.982-8.982V296.211
			C612.001,292.579,609.812,289.302,606.456,287.912z M487.022,21.706c3.672-3.674,9.654-3.674,13.327,0l27.916,27.917
			c3.675,3.673,3.675,9.653,0,13.328l-17.799,17.8l-41.246-41.244L487.022,21.706z M456.517,52.21l41.245,41.243l-16.482,16.482
			l-41.242-41.243L456.517,52.21z M594.038,397.146h-16.573c-4.962,0-8.982,4.021-8.982,8.983c0,4.961,4.021,8.982,8.982,8.982
			h16.573v27.069h-16.573c-4.962,0-8.982,4.021-8.982,8.982s4.021,8.983,8.982,8.983h16.573v27.067h-16.573
			c-4.962,0-8.982,4.021-8.982,8.983c0,4.961,4.021,8.982,8.982,8.982h16.573v27.069h-16.573c-4.962,0-8.982,4.021-8.982,8.982
			c0,4.962,4.021,8.983,8.982,8.983h16.573v42.842H318.877l90.733-90.732c3.509-3.51,3.509-9.195,0-12.704
			c-0.402-0.402-0.835-0.752-1.288-1.063c-3.498-2.396-8.311-2.043-11.417,1.063l-36.404,36.404H68.047
			c-27.244,0-49.175-21.27-50.038-48.464c0.051-1.707,0.184-3.399,0.396-5.072c0.001-0.01,0.002-0.02,0.004-0.029
			c0.1-0.795,0.221-1.586,0.358-2.372c0.016-0.09,0.032-0.18,0.048-0.27c0.125-0.701,0.267-1.399,0.421-2.095
			c0.043-0.194,0.088-0.388,0.134-0.58c0.136-0.588,0.283-1.173,0.441-1.755c0.086-0.315,0.176-0.628,0.268-0.941
			c0.131-0.457,0.268-0.912,0.412-1.363c0.145-0.45,0.299-0.896,0.456-1.342c0.109-0.313,0.216-0.624,0.333-0.934
			c0.219-0.589,0.451-1.171,0.689-1.748c0.068-0.166,0.135-0.335,0.206-0.501c0.308-0.717,0.626-1.426,0.963-2.126
			c0.015-0.03,0.028-0.06,0.042-0.09c7.026-14.54,20.539-25.38,36.756-28.744c0.045-0.009,0.091-0.02,0.136-0.029
			c0.744-0.152,1.494-0.282,2.25-0.403c0.125-0.02,0.251-0.045,0.379-0.064c0.682-0.104,1.372-0.185,2.062-0.263
			c0.194-0.021,0.386-0.052,0.581-0.07c0.666-0.067,1.337-0.111,2.009-0.153c0.213-0.013,0.426-0.036,0.638-0.047
			c0.88-0.044,1.767-0.066,2.657-0.066c4.961,0,8.983-4.021,8.983-8.983v-65.131c0-4.962-4.022-8.983-8.983-8.983
			c-4.96,0-8.982,4.021-8.982,8.983v56.714c-15.169,1.919-29.249,8.684-40.351,19.525c-1.167,1.141-2.274,2.326-3.353,3.531V97.66
			c0-25.987,18.917-47.643,43.702-51.92v88.101v182.616v0.002c0,4.96,4.022,8.982,8.983,8.982s8.983-4.022,8.983-8.982v-0.002
			V142.823h260.865l-49.658,49.658c-3.508,3.51-3.508,9.196,0,12.704c3.508,3.507,9.196,3.507,12.703,0l64.993-64.993
			c0.003-0.002,0.004-0.005,0.006-0.006l58.792-58.792l41.242,41.244l-4.839,4.839c-0.004,0.003-0.009,0.007-0.012,0.011
			L282.599,308.615l-41.243-41.244l35.702-35.702c3.508-3.509,3.508-9.195,0-12.704c-3.508-3.507-9.195-3.507-12.703,0L222.3,261.02
			c-0.225,0.225-0.435,0.463-0.632,0.707c-0.066,0.082-0.125,0.168-0.187,0.253c-0.126,0.168-0.251,0.338-0.367,0.515
			c-0.066,0.103-0.125,0.208-0.188,0.314c-0.099,0.167-0.195,0.337-0.282,0.51c-0.058,0.112-0.109,0.226-0.162,0.343
			c-0.08,0.176-0.154,0.355-0.222,0.534c-0.024,0.063-0.055,0.123-0.078,0.187l-17.501,49.576l-11.932,33.803
			c-0.158,0.449-0.271,0.906-0.356,1.365h-29.874c-4.96,0-8.982,4.021-8.982,8.983s4.022,8.983,8.982,8.983h248.762
			c4.962,0,8.982-4.021,8.982-8.983s-4.021-8.983-8.982-8.983H230.807l54.781-19.337c0.045-0.017,0.088-0.04,0.134-0.057
			c0.213-0.079,0.422-0.167,0.628-0.262c0.083-0.038,0.165-0.073,0.245-0.113c0.215-0.107,0.427-0.226,0.635-0.353
			c0.067-0.041,0.136-0.078,0.202-0.119c0.216-0.139,0.427-0.291,0.633-0.451c0.052-0.039,0.105-0.074,0.156-0.115
			c0.25-0.2,0.495-0.417,0.727-0.648l184.849-184.847h78v191.903L423.306,463.221c-3.509,3.509-3.509,9.195,0,12.703
			c0.219,0.219,0.446,0.425,0.682,0.617c1.647,1.342,3.659,2.014,5.67,2.014s4.023-0.672,5.669-2.014
			c0.236-0.191,0.464-0.398,0.683-0.617c0.004-0.003,0,0,0.004-0.003l158.025-158.026V397.146z M266.169,317.59l-25.73,9.084
			l-17.144-17.144l9.083-25.73L266.169,317.59z"/>
	</g>
</g>
</svg>
