<?xml version="1.0" encoding="utf-8"?>
<!-- Generator: Adobe Illustrator 16.0.0, SVG Export Plug-In . SVG Version: 6.00 Build 0)  -->
<!DOCTYPE svg PUBLIC "-//W3C//DTD SVG 1.1//EN" "http://www.w3.org/Graphics/SVG/1.1/DTD/svg11.dtd">
<svg version="1.1" id="Capa_1" xmlns="http://www.w3.org/2000/svg" xmlns:xlink="http://www.w3.org/1999/xlink" x="0px" y="0px"
	 width="612px" height="612px" viewBox="0 0 612 612" enable-background="new 0 0 612 612" xml:space="preserve">
<g>
	<g>
		<path fill="#F38320" d="M570.229,153.415c-3.083-5.301-9.881-7.1-15.183-4.018l-54.226,31.346c-5.301,3.082-7.1,9.88-4.018,15.182
			c3.082,5.302,9.881,7.101,15.182,4.018l54.226-31.346C571.512,165.513,573.311,158.716,570.229,153.415z"/>
	</g>
</g>
<g>
	<g>
		<path fill="#F38320" d="M566.21,443.467l-54.226-31.346c-5.301-3.082-12.1-1.283-15.182,4.018
			c-3.082,5.302-1.283,12.1,4.018,15.183l54.226,31.345c5.302,3.083,12.1,1.284,15.183-4.018
			C573.311,453.346,571.512,446.549,566.21,443.467z"/>
	</g>
</g>
<g>
	<g>
		<path fill="#F38320" d="M306.858,525.418c-6.15-0.457-11.503,4.158-11.96,10.308c-0.042,0.55-0.042,1.103,0,1.653v62.629
			c-0.457,6.149,4.158,11.503,10.307,11.96s11.503-4.157,11.96-10.307c0.041-0.551,0.041-1.103,0-1.653v-62.629
			C317.62,531.23,313.006,525.875,306.858,525.418z"/>
	</g>
</g>
<g>
	<g>
		<path fill="#F38320" d="M111.181,180.742l-54.226-31.346c-5.302-3.082-12.1-1.283-15.182,4.018s-1.284,12.1,4.018,15.182
			l54.226,31.346c5.301,3.083,12.099,1.284,15.182-4.018C118.281,190.621,116.482,183.824,111.181,180.742z"/>
	</g>
</g>
<g>
	<g>
		<path fill="#F38320" d="M306.858,0.031c-6.15-0.457-11.503,4.157-11.96,10.307c-0.042,0.551-0.042,1.103,0,1.653V74.62
			c0.034,6.117,4.985,11.069,11.103,11.103c6.166,0,11.164-4.998,11.164-11.164V11.992C317.62,5.843,313.006,0.488,306.858,0.031z"
			/>
	</g>
</g>
<g>
	<g>
		<path fill="#F38320" d="M199.88,100.017l-31.284-54.226c-3.082-5.301-9.88-7.1-15.182-4.018c-5.302,3.083-7.101,9.88-4.018,15.182
			l31.284,54.226c3.083,5.301,9.88,7.1,15.182,4.018C201.164,112.115,202.963,105.318,199.88,100.017z"/>
	</g>
</g>
<g>
	<g>
		<path fill="#F38320" d="M307.654,206.935c-0.551-0.042-1.103-0.042-1.653,0c-54.713,0-99.066,44.353-99.066,99.066
			c0,6.166,4.998,11.164,11.164,11.164c6.142-0.034,11.103-5.022,11.103-11.164c-0.034-42.381,34.296-76.766,76.676-76.799
			c0.042,0,0.082,0,0.123,0c6.149,0.457,11.503-4.158,11.96-10.307S313.804,207.39,307.654,206.935z"/>
	</g>
</g>
<g>
	<g>
		<path fill="#F38320" d="M610.314,305.142c-0.409-5.513-4.792-9.897-10.307-10.307h-62.629c-6.15-0.457-11.504,4.158-11.961,10.307
			c-0.457,6.149,4.158,11.502,10.308,11.959c0.55,0.042,1.104,0.042,1.654,0h62.63C606.157,316.646,610.771,311.291,610.314,305.142
			z"/>
	</g>
</g>
<g>
	<g>
		<path fill="#F38320" d="M76.275,294.898c-0.551-0.042-1.103-0.042-1.653,0H11.992c-6.149,0.457-10.764,5.812-10.307,11.959
			c0.409,5.514,4.792,9.898,10.307,10.308h62.629c6.149,0.457,11.503-4.157,11.96-10.308
			C87.039,300.708,82.424,295.354,76.275,294.898z"/>
	</g>
</g>
<g>
	<g>
		<path fill="#F38320" d="M306.045,142.158c-90.487-0.012-163.852,73.332-163.865,163.819
			c-0.006,43.472,17.265,85.163,48.007,115.896c30.685,30.762,72.364,48.024,115.812,47.969
			c90.487,0.013,163.854-73.331,163.865-163.819C469.877,215.536,396.533,142.17,306.045,142.158z M406.108,406.294
			c-55.289,55.288-144.93,55.288-200.218,0c-26.596-26.597-41.516-62.682-41.466-100.293c-0.054-37.56,14.871-73.59,41.466-100.109
			v0.184c55.289-55.288,144.929-55.288,200.218,0C461.398,261.364,461.398,351.006,406.108,406.294z"/>
	</g>
</g>
<g>
	<g>
		<path fill="#F38320" d="M462.633,555.096c-0.01-0.018-0.019-0.034-0.029-0.05l-31.346-54.226c-3.082-5.301-9.88-7.1-15.182-4.018
			s-7.101,9.881-4.018,15.182l31.345,54.226c3.07,5.296,9.849,7.106,15.151,4.049C463.868,567.196,465.695,560.407,462.633,555.096z
			"/>
	</g>
</g>
<g>
	<g>
		<path fill="#F38320" d="M458.955,41.773c-5.302-3.083-12.1-1.284-15.182,4.018l-31.346,54.226
			c-3.104,5.289-1.331,12.092,3.957,15.194c0.01,0.006,0.02,0.013,0.03,0.019l0,0c5.297,3.088,12.095,1.299,15.184-4
			c0.009-0.017,0.02-0.034,0.029-0.049l31.345-54.226C466.056,51.652,464.257,44.856,458.955,41.773z"/>
	</g>
</g>
<g>
	<g>
		<path fill="#F38320" d="M195.924,496.803c-5.301-3.082-12.1-1.283-15.182,4.018l-31.346,54.226
			c-3.083,5.302-1.284,12.1,4.018,15.183c5.301,3.082,12.1,1.283,15.182-4.019l31.346-54.226
			C203.024,506.682,201.225,499.885,195.924,496.803z"/>
	</g>
</g>
<g>
	<g>
		<path fill="#F38320" d="M115.199,416.078c-3.083-5.302-9.88-7.101-15.182-4.019l-54.226,31.346
			c-5.301,3.082-7.1,9.881-4.018,15.182c3.083,5.302,9.88,7.101,15.182,4.018l54.226-31.345
			C116.482,428.176,118.281,421.379,115.199,416.078z"/>
	</g>
</g>
</svg>
