<svg id="Layer_5" enable-background="new 0 0 64 64" height="512" viewBox="0 0 64 64" width="512" xmlns="http://www.w3.org/2000/svg"><path d="m17 44h-2l1 1.333z"/><path d="m13 44.667-1 1.333h2z"/><path d="m26.82 46.059c.116.639.18 1.287.18 1.941 0 2.536-.885 5.011-2.491 6.97l-1.547-1.269c1.314-1.602 2.038-3.627 2.038-5.701 0-1.045-.191-2.071-.551-3.06-2.224-1.303-4.079-3.157-5.383-5.379-2.96-1.074-6.356-.501-8.767 1.477l-1.268-1.547c2.47-2.024 5.787-2.83 8.921-2.279-.256-.688-.476-1.393-.63-2.124-.465-.053-.911-.088-1.322-.088-7.168 0-13 5.832-13 13s5.832 13 13 13 13-5.832 13-13c0-.412-.036-.857-.088-1.323-.719-.151-1.414-.367-2.092-.618zm-14.32-4.059h7l3.75 5-7.25 9.667-7.25-9.667zm3.5 17c-6.065 0-11-4.935-11-11 0-2.536.885-5.011 2.491-6.97l1.547 1.269c-1.314 1.602-2.038 3.627-2.038 5.701 0 4.962 4.037 9 9 9 2.074 0 4.099-.724 5.701-2.038l1.268 1.547c-1.959 1.606-4.434 2.491-6.969 2.491z"/><path d="m32 33h-1v2h1c.552 0 1-.449 1-1s-.448-1-1-1z"/><path d="m17 52 3-4h-3z"/><path d="m19 44.667-1 1.333h2z"/><path d="m15 52v-4h-3z"/><path d="m37.18 17.941c-.116-.639-.18-1.287-.18-1.941 0-2.536.885-5.011 2.491-6.97l1.547 1.269c-1.314 1.602-2.038 3.627-2.038 5.701 0 1.045.191 2.071.551 3.06.937.549 1.807 1.196 2.601 1.929l-1.398-8.385 4.521 1.293 2.721-2.177 2.724 2.178 4.526-1.293-1.399 8.395h-11.683c1.084 1.002 2.019 2.159 2.77 3.44 2.959 1.073 6.356.5 8.767-1.477l1.268 1.547c-1.959 1.605-4.434 2.49-6.969 2.49-.654 0-1.302-.064-1.941-.18.251.678.467 1.372.618 2.092.466.053.912.088 1.323.088 7.168 0 13-5.832 13-13s-5.832-13-13-13-13 5.832-13 13c0 .412.036.857.088 1.323.719.151 1.414.367 2.092.618zm10.82-12.941c6.065 0 11 4.935 11 11 0 2.536-.885 5.011-2.491 6.97l-1.547-1.269c1.314-1.602 2.038-3.627 2.038-5.701 0-4.962-4.037-9-9-9-2.074 0-4.099.724-5.701 2.038l-1.268-1.547c1.959-1.606 4.434-2.491 6.969-2.491z"/><path d="m45 32c0-7.168-5.832-13-13-13s-13 5.832-13 13 5.832 13 13 13 13-5.832 13-13zm-13 11c-6.065 0-11-4.935-11-11 0-2.536.885-5.011 2.491-6.97l1.547 1.269c-1.314 1.602-2.038 3.627-2.038 5.701 0 4.962 4.037 9 9 9 2.074 0 4.099-.724 5.701-2.038l1.268 1.547c-1.959 1.606-4.434 2.491-6.969 2.491zm3-13c0 .768-.29 1.469-.766 2 .476.531.766 1.232.766 2 0 1.302-.839 2.402-2 2.816v2.184h-2v-2h-2v-10h2v-2h2v2.184c1.161.414 2 1.514 2 2.816zm3.962 7.701c1.314-1.602 2.038-3.627 2.038-5.701 0-4.962-4.037-9-9-9-2.074 0-4.099.724-5.701 2.038l-1.268-1.547c1.959-1.606 4.434-2.491 6.969-2.491 6.065 0 11 4.935 11 11 0 2.536-.885 5.011-2.491 6.97z"/><path d="m32 29h-1v2h1c.552 0 1-.449 1-1s-.448-1-1-1z"/><path d="m52.754 15.396-2.478.707-2.28-1.822-2.277 1.823-2.473-.708.601 3.604h8.306z"/><path d="m54 50c-.74 0-1.424.215-2.019.567l-8.701-8.701c-.44.502-.912.974-1.414 1.414l8.701 8.701c-.352.595-.567 1.279-.567 2.019 0 2.206 1.794 4 4 4s4-1.794 4-4-1.794-4-4-4z"/><path d="m55 40c-.984 0-1.851.482-2.398 1.216l-7.322-2.253c-.322.613-.689 1.197-1.09 1.757l7.823 2.407c.068 1.594 1.376 2.873 2.987 2.873 1.654 0 3-1.346 3-3s-1.346-3-3-3z"/><path d="m43.127 52.013-2.407-7.824c-.56.401-1.144.768-1.757 1.091l2.253 7.323c-.734.547-1.216 1.413-1.216 2.397 0 1.654 1.346 3 3 3s3-1.346 3-3c0-1.611-1.279-2.919-2.873-2.987z"/><path d="m10 14c.74 0 1.424-.215 2.019-.567l8.701 8.701c.44-.502.912-.974 1.414-1.414l-8.701-8.701c.352-.595.567-1.279.567-2.019 0-2.206-1.794-4-4-4s-4 1.794-4 4 1.794 4 4 4z"/><path d="m9 24c.984 0 1.851-.482 2.398-1.216l7.323 2.253c.322-.613.689-1.197 1.09-1.757l-7.824-2.407c-.068-1.594-1.376-2.873-2.987-2.873-1.654 0-3 1.346-3 3s1.346 3 3 3z"/><path d="m20.872 11.987 2.408 7.824c.56-.401 1.144-.768 1.757-1.091l-2.253-7.322c.734-.547 1.216-1.414 1.216-2.398 0-1.654-1.346-3-3-3s-3 1.346-3 3c0 1.611 1.278 2.919 2.872 2.987z"/></svg>