<?xml version="1.0" encoding="utf-8"?>
<!-- Generator: Adobe Illustrator 16.0.0, SVG Export Plug-In . SVG Version: 6.00 Build 0)  -->
<!DOCTYPE svg PUBLIC "-//W3C//DTD SVG 1.1//EN" "http://www.w3.org/Graphics/SVG/1.1/DTD/svg11.dtd">
<svg version="1.1" id="Capa_1" xmlns="http://www.w3.org/2000/svg" xmlns:xlink="http://www.w3.org/1999/xlink" x="0px" y="0px"
	 width="284.93px" height="284.93px" viewBox="0 0 284.93 284.93" enable-background="new 0 0 284.93 284.93" xml:space="preserve">
<g>
	<path fill="#FFFFFF" d="M282.082,195.285L149.028,62.24c-1.9-1.903-4.088-2.856-6.563-2.856c-2.474,0-4.665,0.953-6.566,2.856
		L2.856,195.285C0.95,197.191,0,199.378,0,201.853s0.953,4.664,2.855,6.565l14.271,14.271c1.902,1.902,4.094,2.854,6.566,2.854
		c2.474,0,4.664-0.951,6.567-2.854l112.203-112.202l112.208,112.209c1.902,1.903,4.094,2.849,6.563,2.849
		c2.479,0,4.668-0.951,6.57-2.849l14.273-14.276c1.901-1.901,2.847-4.093,2.847-6.565
		C284.929,199.378,283.984,197.188,282.082,195.285z"/>
</g>
</svg>
