<?xml version="1.0" encoding="utf-8"?>
<!-- Generator: Adobe Illustrator 16.0.0, SVG Export Plug-In . SVG Version: 6.00 Build 0)  -->
<!DOCTYPE svg PUBLIC "-//W3C//DTD SVG 1.1//EN" "http://www.w3.org/Graphics/SVG/1.1/DTD/svg11.dtd">
<svg version="1.1" id="Layer_1" xmlns="http://www.w3.org/2000/svg" xmlns:xlink="http://www.w3.org/1999/xlink" x="0px" y="0px"
	 width="512px" height="512px" viewBox="0 0 512 512" enable-background="new 0 0 512 512" xml:space="preserve">
<g id="_x30_24---Utility-Rate">
	<path id="Shape" fill="#F38320" d="M486.819,4.197h-50.36c-13.906,0-25.181,11.273-25.181,25.18v110.625
		c-6.211-2.182-4.364-1.511-58.754-1.511c-13.906,0-25.181,11.274-25.181,25.18v119.02c-6.211-2.183-4.364-1.512-58.754-1.512
		c-13.906,0-25.18,11.274-25.18,25.182v13.01c-26.241-46.224-78.684-70.987-131.05-61.885C59.993,266.59,18.983,307.6,9.88,359.966
		c-9.103,52.367,15.661,104.81,61.884,131.051H16.787c-4.636,0-8.394,3.758-8.394,8.394c0,4.635,3.758,8.393,8.394,8.393h486.819
		c4.636,0,8.394-3.758,8.394-8.393V29.377C512,15.47,500.727,4.197,486.819,4.197L486.819,4.197z M344.131,247.606h67.147v109.114
		h-67.147V247.606z M428.065,146.885h67.147v151.082h-67.147V146.885z M436.459,20.983h50.36c4.636,0,8.394,3.758,8.394,8.394
		v100.721h-67.147V29.377C428.065,24.741,431.823,20.983,436.459,20.983z M352.524,155.279h50.36c4.636,0,8.394,3.758,8.394,8.393
		v67.148h-67.147v-67.148C344.131,159.037,347.889,155.279,352.524,155.279z M260.197,306.361c0-4.637,3.758-8.395,8.393-8.395
		h50.361c4.635,0,8.393,3.758,8.393,8.395v125.901h-67.146V306.361z M25.18,381.901c0-60.263,48.853-109.114,109.115-109.114
		c60.263,0,109.115,48.852,109.115,109.114s-48.852,109.115-109.115,109.115c-28.939,0-56.692-11.496-77.156-31.959
		C36.676,438.595,25.18,410.841,25.18,381.901z M243.41,444.433v46.584h-46.583C216.194,479.872,232.266,463.8,243.41,444.433z
		 M260.197,449.049h67.146v41.968h-67.146V449.049z M344.131,373.508h67.147v117.509h-67.147V373.508z M428.065,491.017V314.754
		h67.147v176.263H428.065z"/>
	<path id="Shape_1_" fill="#F38320" d="M321.805,6.631l-41.967,41.967c-3.292,3.291-3.292,8.627,0,11.918
		c3.291,3.292,8.627,3.292,11.918,0l25.852-25.852C304.514,194.979,141.43,197.246,134.295,197.246
		c-4.635,0-8.393,3.758-8.393,8.393c0,4.636,3.758,8.394,8.393,8.394c1.931,0,188.265-2.266,200.688-182.39l28.37,28.454
		c1.513,1.726,3.666,2.757,5.959,2.854c3.41,0.02,6.493-2.025,7.801-5.174c1.308-3.149,0.58-6.777-1.842-9.178L333.304,7.05
		C330.185,3.892,325.146,3.708,321.805,6.631z"/>
	<path id="Shape_2_" fill="#F38320" d="M127.916,292.512c-6.211,7.219-60.769,71.596-60.769,106.177
		c0,37.085,30.063,67.147,67.147,67.147c37.085,0,67.147-30.063,67.147-67.147c0-34.581-54.557-98.958-60.768-106.177
		c-1.595-1.865-3.926-2.938-6.379-2.938S129.511,290.646,127.916,292.512z M134.295,449.049c-27.813,0-50.36-22.547-50.36-50.36
		c0-21.235,32.063-65.134,50.36-87.628c18.298,22.494,50.361,66.309,50.361,87.628C184.656,426.502,162.108,449.049,134.295,449.049
		z"/>
	<path id="Shape_3_" fill="#F38320" d="M129.679,416.398c-6.929-3.305-11.569-10.057-12.17-17.71c0-4.636-3.758-8.394-8.394-8.394
		s-8.394,3.758-8.394,8.394c0.612,13.983,8.825,26.512,21.403,32.65c2.696,1.622,6.072,1.601,8.747-0.056
		c2.675-1.657,4.199-4.671,3.947-7.807C134.567,420.34,132.583,417.608,129.679,416.398z"/>
</g>
</svg>
